<?xml version="1.0" encoding="UTF-8" standalone="no"?>
<svg
   clip-rule="evenodd"
   fill-rule="evenodd"
   height="1152"
   stroke-linejoin="round"
   stroke-miterlimit="1.41421"
   viewBox="0 0 2048 1152"
   width="2048"
   version="1.1"
   id="svg124"
   sodipodi:docname="RustaceansKenya-Banner-Youtube-Dimensions.svg"
   inkscape:version="1.2.2 (b0a8486541, 2022-12-01)"
   inkscape:export-filename="RustaceansKenya-Banner-Youtube-Dimensions.png"
   inkscape:export-xdpi="96"
   inkscape:export-ydpi="96"
   xmlns:inkscape="http://www.inkscape.org/namespaces/inkscape"
   xmlns:sodipodi="http://sodipodi.sourceforge.net/DTD/sodipodi-0.dtd"
   xmlns="http://www.w3.org/2000/svg"
   xmlns:svg="http://www.w3.org/2000/svg">
  <defs
     id="defs128" />
  <sodipodi:namedview
     id="namedview126"
     pagecolor="#505050"
     bordercolor="#ffffff"
     borderopacity="1"
     inkscape:showpageshadow="0"
     inkscape:pageopacity="0"
     inkscape:pagecheckerboard="1"
     inkscape:deskcolor="#505050"
     showgrid="false"
     inkscape:zoom="0.30405592"
     inkscape:cx="1017.9049"
     inkscape:cy="730.12885"
     inkscape:window-width="1920"
     inkscape:window-height="1014"
     inkscape:window-x="1920"
     inkscape:window-y="0"
     inkscape:window-maximized="1"
     inkscape:current-layer="svg124" />
  <g
     id="g2904"
     transform="matrix(0.67376923,0,0,0.67376923,334.06029,187.90892)">
    <g
       transform="matrix(2.0910285,0,0,2.0910285,1165.9188,944.05398)"
       id="g549"
       style="clip-rule:evenodd;fill-rule:evenodd;stroke-linejoin:round;stroke-miterlimit:1.41421">
      <g
         fill="#c03a31"
         id="g469">
        <path
           d="m -371.8612,-201.64629 a 56.352377,56.352377 0 0 1 -56.35238,56.35237 56.352377,56.352377 0 0 1 -56.35237,-56.35237 56.352377,56.352377 0 0 1 56.35237,-56.35238 56.352377,56.352377 0 0 1 56.35238,56.35238 z m -1.06063,-5.44205 8.78809,5.44205 -8.78809,5.44205 7.55069,7.05825 -9.67196,3.62383 6.0355,8.39666 -10.21489,1.66671 4.29303,9.41942 -10.34116,-0.36617 2.3738,10.076 -10.076,-2.37379 0.36617,10.34116 -9.41942,-4.29304 -1.66671,10.2149 -8.39667,-6.0355 -3.62382,9.67195 -7.05826,-7.55069 -5.44205,8.78809 -5.44205,-8.78809 -7.05825,7.55069 -3.62383,-9.67195 -8.39666,6.0355 -1.66671,-10.2149 -9.41942,4.29304 0.36617,-10.34116 -10.076,2.37379 2.37379,-10.076 -10.34116,0.36617 4.29304,-9.41942 -10.2149,-1.66671 6.0355,-8.39666 -9.67195,-3.62383 7.55069,-7.05825 -8.78809,-5.44205 8.78809,-5.44205 -7.55069,-7.05826 9.67195,-3.62382 -6.0355,-8.39667 10.2149,-1.66671 -4.29304,-9.41942 10.34116,0.36617 -2.37379,-10.076 10.076,2.3738 -0.36617,-10.34116 9.41942,4.29303 1.66671,-10.21489 8.39666,6.03549 3.62383,-9.67195 7.05825,7.55069 5.44205,-8.78809 5.44205,8.78809 7.05826,-7.55069 3.62382,9.67195 8.39667,-6.03549 1.66671,10.21489 9.41942,-4.29303 -0.36617,10.34116 10.076,-2.3738 -2.3738,10.076 10.34116,-0.36617 -4.29303,9.41942 10.21489,1.66671 -6.0355,8.39667 9.67196,3.62382 z"
           fill-rule="evenodd"
           stroke="#c03a31"
           stroke-linecap="round"
           stroke-linejoin="round"
           stroke-width="3.78797"
           id="path463" />
        <path
           d="m -428.21289,-261.33203 c -32.90478,0 -59.68555,26.79339 -59.68555,59.68555 0,32.89213 26.7934,59.68554 59.68555,59.68554 32.89215,0 59.68555,-26.79341 59.68555,-59.68554 0,-32.89216 -26.7934,-59.68555 -59.68555,-59.68555 z m -0.0898,5.30273 c 2.12304,0.0543 3.81561,1.79715 3.81445,3.92774 -0.038,5.19752 -7.81551,5.19752 -7.85352,0 -10e-4,-2.21368 1.8263,-3.99099 4.03907,-3.92774 z m -8.875,6.46485 6.04687,6.33984 c 1.36366,1.4268 3.62398,1.48958 5.05078,0.11328 l 6.76758,-6.45312 c 13.95267,2.61311 26.05062,11.22911 33.08203,23.56054 l -4.63281,10.45508 c -0.79547,1.8056 0.0235,3.92823 1.8164,4.73633 l 8.91602,3.95117 c 0.2761,2.78676 0.57521,5.63041 0.0996,8.38477 -1.51694,8.78496 -4.73813,17.4093 -9.26758,25.08789 -1.15832,1.96365 -2.85874,3.55954 -4.46875,5.17773 l -8.29687,-1.78125 c -1.93187,-0.41668 -3.83723,0.82204 -4.25391,2.75391 l -1.9707,9.1914 c -12.81733,5.80613 -27.52886,5.73696 -40.29102,-0.18945 l -1.9707,-9.1914 c -0.41667,-1.93187 -2.31033,-3.17059 -4.24219,-2.75391 l -8.11914,1.74414 c -1.50646,-1.55464 -3.00708,-3.14199 -4.19141,-4.95117 -3.14108,-4.79833 -6.05417,-9.91528 -7.58789,-15.44141 -1.65037,-5.94644 -2.23811,-12.2547 -1.5664,-18.44726 l 8.45898,-3.76368 c 1.8056,-0.80808 2.62647,-2.91705 1.81836,-4.72265 l -1.74219,-3.92578 c 0,0 0.49109,-10.61994 3.50977,-14.6211 6.23183,-8.26008 16.59109,-13.28096 27.03516,-15.2539 z m -37.94336,29.0664 c 2.12429,0.0619 3.81388,1.80254 3.8125,3.92774 -0.0377,5.19788 -7.81587,5.19788 -7.85352,0 -10e-4,-2.21447 1.82749,-3.99212 4.04102,-3.92774 z m 93.625,0.17774 c 2.12429,0.0608 3.81473,1.80061 3.81445,3.92578 -0.0376,5.19788 -7.81587,5.19788 -7.85352,0 -2.9e-4,-2.21291 1.82707,-3.98901 4.03907,-3.92578 z m -75.88477,55.11523 c 2.12354,0.0619 3.81282,1.80135 3.8125,3.92578 -0.0377,5.19789 -7.81587,5.19789 -7.85352,0 -3.2e-4,-2.21369 1.82826,-3.99013 4.04102,-3.92578 z m 58.14453,0.17578 c 2.12506,0.0609 3.8158,1.80181 3.81445,3.92774 -0.0385,5.19697 -7.81497,5.19697 -7.85351,0 -10e-4,-2.21367 1.82629,-3.99099 4.03906,-3.92774 z"
           stroke-width="1.26266"
           id="path465" />
        <path
           d="m -442.63342,-227.2593 c 0,0 -2.55285,4.90345 -3.26985,6.80917 0,0 -3.35322,30.10312 0,44.57976 0.61256,2.64456 3.58057,7.31437 3.58057,7.31437 0,0 0.1117,-0.21402 0.17624,-0.31745 l -0.2583,-0.28406 c -0.10196,-0.0993 -0.10354,-0.26184 -0.004,-0.36342 l 0.77778,-0.79313 c 0.0506,-0.0515 0.1175,-0.0775 0.18448,-0.0775 0.0651,0 0.13042,0.0241 0.18062,0.0731 l 0.29031,0.25116 c 0.3832,-0.24987 0.80131,-0.42522 1.23367,-0.52553 l 0.019,-0.38327 c -0.001,-0.14203 0.11289,-0.25837 0.25535,-0.25986 l 1.11278,-0.0132 c 4.9e-4,-2e-5 4.9e-4,0 0.003,0 0.14116,2e-5 0.25531,0.11356 0.2578,0.25455 l 0.0277,0.38228 c 0.43451,0.0905 0.85651,0.25632 1.24529,0.49747 l 0.285,-0.25744 c 0.0506,-0.0515 0.1175,-0.0775 0.18448,-0.0775 0.0651,0 0.12989,0.0246 0.18012,0.0735 l 0.79574,0.77524 c 0.1017,0.0993 0.10354,0.26233 0.004,0.3639 l -0.25148,0.28939 c 0.25072,0.38192 0.42661,0.79868 0.52726,1.22962 0,0 -0.10775,0.0898 -0.17577,0.15776 -0.12843,0.12818 -0.20067,0.29749 -0.20391,0.47811 l -0.007,0.11421 -0.004,0.0561 c -0.18303,0.0518 -0.36255,0.11395 -0.53791,0.18582 0.0142,-0.35196 -0.0367,-0.70609 -0.15343,-1.04235 -0.0432,-0.12449 -0.0952,-0.24629 -0.15634,-0.36487 -0.13626,-0.26454 -0.31724,-0.51235 -0.5423,-0.73169 -0.22506,-0.21931 -0.47732,-0.39332 -0.74573,-0.5231 -0.0332,-0.0161 -0.0668,-0.0317 -0.10051,-0.0465 l -0.41266,2.06148 c 0.12027,0.16255 0.17898,0.35655 0.17526,0.54972 l 0.27529,0.2681 -0.87343,0.87202 -0.26604,-0.25938 c -0.0132,4.9e-4 -0.025,9.7e-4 -0.0374,9.7e-4 -0.17182,0 -0.34381,-0.0486 -0.49328,-0.14614 l -1.31522,0.29229 c 0.35651,0.56837 0.70844,1.13069 1.08121,1.68983 0.23816,0.0627 0.48222,0.0958 0.72679,0.0958 0.0328,0 0.0659,-7.4e-4 0.0985,-10e-4 -0.0763,0.18186 -0.14177,0.36824 -0.19613,0.55844 -10e-4,0.004 -10e-4,0.009 -0.004,0.0136 l -0.15586,0.009 c 0.0852,0.12448 0.17149,0.24657 0.25733,0.3702 l 0.20488,-0.0132 c 0.0295,-0.13373 0.0645,-0.26523 0.10538,-0.39438 0.0647,-0.2049 0.14368,-0.40368 0.23498,-0.59523 0.036,-0.0754 0.0738,-0.14952 0.11369,-0.2226 0.0451,-0.0827 0.0923,-0.16426 0.14224,-0.24389 0.007,-0.0119 0.0144,-0.0233 0.0219,-0.0349 l -0.30779,-0.34599 c -0.0274,-0.0273 -0.0487,-0.0584 -0.0636,-0.0914 -0.0383,-0.0843 -0.0369,-0.18191 0.004,-0.26519 0.0146,-0.0295 0.0341,-0.0572 0.0588,-0.0818 l 0.066,-0.0663 0.87343,-0.87152 0.009,-0.009 c 0.048,-0.0478 0.10736,-0.0764 0.16943,-0.0867 0.0169,-0.003 0.0341,-0.004 0.051,-0.004 0.0796,0 0.15917,0.03 0.21992,0.0905 l 0.34763,0.30633 c 0.0119,-0.008 0.025,-0.0154 0.0374,-0.0232 0.009,-0.005 0.0182,-0.0119 0.0277,-0.017 0.0801,-0.0493 0.16149,-0.0959 0.24469,-0.14034 0.0736,-0.0393 0.14833,-0.0768 0.2243,-0.11224 0.18737,-0.0873 0.38169,-0.16276 0.58164,-0.22502 0.12409,-0.0386 0.25037,-0.0723 0.37867,-0.10064 l 0.0277,-0.46165 c -1.6e-4,-0.17134 0.13883,-0.31007 0.31071,-0.3102 l 0.32819,-4.9e-4 h 0.19373 0.19323 l 0.62726,-4.9e-4 c 0.17177,0 0.31122,0.13847 0.31122,0.30972 l 0.0286,0.46165 c 0.53944,0.11829 1.0437,0.32929 1.49534,0.61602 l 0.34714,-0.3068 c 0.0609,-0.0607 0.14064,-0.091 0.22041,-0.091 0.0796,0 0.15921,0.03 0.21993,0.0905 l 0.94965,0.94509 c 0.12132,0.12106 0.12145,0.31767 0,0.43891 l -0.30732,0.34649 c 0.28844,0.44966 0.50133,0.95202 0.62094,1.48949 l 0.46271,0.0275 c 0.17176,0 0.31109,0.13895 0.31118,0.3102 l 0.003,1.33754 c 1.3e-4,0.17134 -0.13882,0.31054 -0.31072,0.31067 l -0.46511,0.0281 c -0.11869,0.53769 -0.33052,1.04029 -0.61804,1.49047 l 0.30779,0.34599 c 0.12132,0.12106 0.12145,0.31766 0,0.43891 l -0.94817,0.94653 c -0.0607,0.0607 -0.14066,0.0914 -0.22041,0.0914 -0.0796,0 -0.15918,-0.0306 -0.21994,-0.091 l -0.34761,-0.30631 c -0.45114,0.28749 -0.95515,0.49973 -1.49439,0.61892 l -0.0277,0.46117 c 1.7e-4,0.17133 -0.13883,0.31056 -0.31073,0.31068 h -0.28837 c 1.24321,1.21302 2.46178,2.15292 3.59511,2.68621 l 0.009,-0.009 c -0.19358,-0.30298 -0.33616,-0.64129 -0.41606,-1.00316 l -0.31363,-0.0188 c -0.11566,-9e-5 -0.20935,-0.0938 -0.20924,-0.20906 l 0.003,-0.90057 c 8e-5,-0.11527 0.0937,-0.20856 0.20925,-0.20856 l 0.31169,-0.0184 c 0.0805,-0.36173 0.22392,-0.70004 0.41803,-1.00268 l -0.20731,-0.23324 c -0.0817,-0.0815 -0.0817,-0.21372 0,-0.2952 l 0.63939,-0.63586 c 0.0408,-0.0407 0.0947,-0.061 0.14808,-0.061 0.0536,0 0.10723,0.0202 0.14809,0.061 l 0.23402,0.20663 c 0.30395,-0.19297 0.64338,-0.33511 1.00643,-0.41471 l 0.019,-0.31067 c 0,-0.11527 0.0942,-0.20857 0.20973,-0.20857 l 0.42191,4.9e-4 h 0.13015 0.13015 l 0.22091,4.8e-4 c 0.11566,1e-4 0.20934,0.0933 0.20925,0.20857 l 0.019,0.31067 c 0.0864,0.0191 0.17137,0.0418 0.25489,0.0677 0.13458,0.0419 0.26518,0.0927 0.3913,0.15147 0.0511,0.0238 0.10143,0.049 0.15099,0.0755 0.056,0.0299 0.11065,0.0613 0.16458,0.0943 0.007,0.004 0.0132,0.008 0.019,0.0119 0.008,0.005 0.017,0.0105 0.0253,0.0159 l 0.2335,-0.20614 c 0.0408,-0.0407 0.0946,-0.0615 0.14808,-0.0615 0.0118,0 0.0227,0.001 0.034,0.004 0.0417,0.007 0.0823,0.0259 0.1146,0.0581 l 0.005,0.005 0.58747,0.587 0.0446,0.0445 c 0.0166,0.0166 0.0295,0.0353 0.0393,0.0552 0.0278,0.056 0.0288,0.12185 0.003,0.17856 -0.0105,0.0223 -0.0242,0.0432 -0.0427,0.0615 l -0.2073,0.23276 c 0.005,0.008 0.0105,0.0154 0.015,0.0232 0.0336,0.0536 0.0653,0.10829 0.0956,0.16405 0.0267,0.0491 0.0526,0.0993 0.0767,0.15001 0.0614,0.12897 0.11421,0.26279 0.15777,0.40069 0.0274,0.0869 0.051,0.17518 0.0709,0.26518 l 0.31169,0.0194 c 0.11566,9e-5 0.20935,0.0937 0.20925,0.20905 v 0.19793 0.1321 0.13015 0.0784 c 0.36502,-0.30512 0.73315,-0.63508 1.1045,-0.99347 l -0.11645,-0.10552 c -0.24812,0.1539 -0.5159,0.26243 -0.79235,0.3252 -0.0202,-0.0345 -0.0452,-0.0668 -0.0743,-0.0958 -0.0864,-0.0863 -0.2004,-0.13498 -0.32239,-0.13743 l -0.115,-0.007 c -0.003,-0.003 -0.003,-0.007 -0.003,-0.009 -0.0366,-0.12804 -0.0808,-0.25312 -0.13208,-0.37552 0.0221,7.4e-4 0.044,9.9e-4 0.066,9.9e-4 0.19747,0 0.39538,-0.0302 0.58549,-0.091 0.0847,-0.027 0.16761,-0.0601 0.24858,-0.0992 0.18066,-0.0873 0.35054,-0.20469 0.50202,-0.3523 0.15133,-0.14762 0.27338,-0.31459 0.36509,-0.49262 0.009,-0.0177 0.0178,-0.0353 0.0262,-0.0532 l -1.39533,-0.31019 c -0.10064,0.0656 -0.21658,0.0983 -0.33207,0.0983 -0.008,0 -0.0167,-1.1e-4 -0.0253,-4.8e-4 l -0.17914,0.17469 -0.58747,-0.587 0.18497,-0.18049 c -0.003,-0.13002 0.0371,-0.26032 0.11803,-0.36972 l -0.27772,-1.38738 c -0.0226,0.0105 -0.0456,0.0202 -0.068,0.0309 -0.18063,0.0873 -0.35019,0.20469 -0.5015,0.35229 -0.15147,0.14762 -0.27338,0.31411 -0.3651,0.49215 -0.0411,0.0798 -0.0757,0.16206 -0.10486,0.24583 -0.0785,0.2263 -0.11342,0.46431 -0.1038,0.70119 -0.11803,-0.0483 -0.23851,-0.09 -0.36171,-0.12488 l -0.003,-0.0377 -0.004,-0.0769 c -0.003,-0.12158 -0.051,-0.2355 -0.13739,-0.3218 -0.0457,-0.0457 -0.11842,-0.10591 -0.11842,-0.10591 0.0677,-0.29003 0.18619,-0.57043 0.35492,-0.82749 l -0.16946,-0.19502 c -0.067,-0.0684 -0.0655,-0.17803 0.003,-0.24486 l 0.53551,-0.52166 c 0.0337,-0.0329 0.0776,-0.0494 0.12132,-0.0494 0.0451,0 0.0898,0.0175 0.12383,0.0523 l 0.19178,0.17277 c 0.26165,-0.16231 0.54603,-0.27393 0.83844,-0.33487 l 0.0184,-0.25697 c 0.003,-0.0949 0.0788,-0.1713 0.17381,-0.1713 h 0.003 l 0.74864,0.008 c 0.0959,9.8e-4 0.17296,0.0796 0.17187,0.17518 l 0.0132,0.25793 c 0.29099,0.0676 0.5723,0.18556 0.83022,0.35373 l 0.19566,-0.16888 c 0.0337,-0.0329 0.0776,-0.0494 0.12132,-0.0494 0.0449,0 0.0902,0.0171 0.12436,0.0518 l 0.52335,0.53376 c 0.067,0.0684 0.0659,0.17802 -0.003,0.24486 l -0.1738,0.19116 c 0.16284,0.2608 0.2748,0.54375 0.33595,0.83523 l 0.2588,0.0188 c 0.0959,9.8e-4 0.17296,0.079 0.17187,0.17469 l -0.009,0.74669 c -0.003,0.095 -0.0784,0.17081 -0.17334,0.17081 -0.003,0 -0.003,1e-5 -0.003,0 l -0.25827,0.0132 c -0.0677,0.29004 -0.1862,0.57044 -0.35491,0.82751 l 0.0855,0.0983 c 0,0 9.50935,-11.45789 11.50389,-18.4154 4.09503,-14.28453 3.77306,-30.20682 0,-44.57976 -1.37861,-5.2516 -8.00057,-14.18839 -8.00057,-14.18839 0,0 -0.17638,0.49397 -0.32382,0.71861 l 0.16896,0.19502 c 0.0671,0.0684 0.0661,0.17802 -0.003,0.24486 l -0.53551,0.52214 c -0.0337,0.0329 -0.0776,0.0489 -0.12133,0.0489 -0.045,0 -0.0902,-0.0171 -0.12422,-0.0518 l -0.19176,-0.17324 c -0.2481,0.15389 -0.51638,0.26195 -0.79283,0.3247 -0.0202,-0.0345 -0.0448,-0.0664 -0.0738,-0.0954 -0.0864,-0.0863 -0.20088,-0.13497 -0.32286,-0.13742 l -0.11513,-0.008 c -0.003,-0.003 -0.003,-0.005 -0.003,-0.009 -0.0366,-0.12804 -0.0811,-0.2536 -0.13253,-0.37599 0.0221,7.3e-4 0.0444,10e-4 0.0665,10e-4 0.19762,0 0.39492,-0.0302 0.58503,-0.091 0.0847,-0.0271 0.16812,-0.0606 0.24908,-0.0997 0.18065,-0.0873 0.35051,-0.20468 0.502,-0.35229 0.15147,-0.14763 0.2729,-0.31411 0.3646,-0.49214 0.009,-0.0177 0.0178,-0.0354 0.0262,-0.0532 l -1.39533,-0.3102 c -0.10064,0.0656 -0.21597,0.0983 -0.3316,0.0983 -0.008,0 -0.0173,-1.2e-4 -0.0257,-4.9e-4 l -0.17868,0.1742 -0.58792,-0.5865 0.18546,-0.1805 c -0.003,-0.13002 0.0366,-0.2608 0.1175,-0.37019 l -0.27771,-1.38691 c -0.0227,0.0105 -0.0451,0.0202 -0.0675,0.031 -0.18064,0.0873 -0.35054,0.20468 -0.50199,0.3523 -0.15149,0.1476 -0.2729,0.3141 -0.36462,0.49213 -0.0411,0.0798 -0.0763,0.16207 -0.10539,0.24584 -0.0785,0.2263 -0.11302,0.46431 -0.1034,0.70118 -0.11803,-0.0483 -0.23899,-0.09 -0.36218,-0.12488 l -0.003,-0.0378 -0.004,-0.0769 c -0.003,-0.12159 -0.051,-0.23551 -0.1374,-0.32181 -0.0457,-0.0457 -0.11842,-0.10604 -0.11842,-0.10604 0.0677,-0.29003 0.18619,-0.57043 0.35492,-0.82749 l -0.16896,-0.19503 c -0.067,-0.0684 -0.0661,-0.17802 0.003,-0.24486 l 0.53551,-0.52167 c 0.0337,-0.0329 0.0776,-0.0494 0.12132,-0.0494 0.0451,0 0.0902,0.0171 0.12436,0.0518 l 0.19177,0.17323 c 0.26165,-0.1623 0.54555,-0.27392 0.83798,-0.33487 l 0.019,-0.25744 c 0.001,-0.0584 0.0323,-0.1071 0.0767,-0.13792 -1.01596,-1.11884 -2.02888,-2.08647 -3.00623,-2.83139 l -0.2437,0.26761 c 0.24199,0.3875 0.40823,0.80816 0.49908,1.24125 l 0.38354,0.0275 c 0.14248,0.001 0.2565,0.11829 0.25488,0.26034 l -0.0119,1.10865 c -0.003,0.14105 -0.11711,0.25455 -0.2583,0.25455 -0.003,0 -0.003,1e-5 -0.003,0 l -0.38403,0.0188 c -0.10064,0.43093 -0.27659,0.84766 -0.52725,1.22963 l 0.25149,0.28986 c 0.0997,0.10156 0.0979,0.26412 -0.004,0.36343 l -0.79574,0.77522 c -0.0502,0.0489 -0.11513,0.0735 -0.18011,0.0735 -0.0671,0 -0.13399,-0.0258 -0.18451,-0.0774 l -0.28497,-0.25744 c -0.36863,0.22865 -0.76705,0.38968 -1.17781,0.48293 -0.0299,-0.0512 -0.067,-0.0992 -0.11026,-0.14227 -0.12844,-0.12817 -0.29798,-0.20008 -0.47918,-0.20372 l -0.1709,-0.0105 c -0.003,-0.004 -0.003,-0.009 -0.004,-0.0136 -0.0544,-0.19018 -0.11987,-0.37611 -0.19615,-0.55796 0.0327,0.001 0.0659,0.001 0.0985,0.001 0.29361,0 0.58705,-0.0452 0.86954,-0.1355 0.1258,-0.0402 0.24972,-0.0894 0.36994,-0.14759 0.26842,-0.12976 0.52073,-0.30379 0.74572,-0.52312 0.22509,-0.21933 0.40557,-0.46714 0.54182,-0.73167 0.0134,-0.0262 0.0267,-0.0523 0.0394,-0.0789 l -2.07357,-0.46118 c -0.14947,0.0975 -0.32143,0.14614 -0.49325,0.14614 -0.0119,0 -0.0248,-4.1e-4 -0.0374,-9.7e-4 l -0.26606,0.25937 -0.87341,-0.87201 0.27526,-0.26809 c -0.004,-0.1932 0.0551,-0.38718 0.17528,-0.54973 l -0.41269,-2.06148 c -0.0337,0.0147 -0.0672,0.0304 -0.10051,0.0465 -0.26842,0.12976 -0.52067,0.30427 -0.74573,0.52359 -0.22506,0.21932 -0.40602,0.46666 -0.5423,0.7312 -0.0611,0.11855 -0.11315,0.2404 -0.15632,0.36488 -0.11671,0.33625 -0.16759,0.69038 -0.15343,1.04234 -0.17537,-0.0719 -0.3549,-0.13405 -0.53794,-0.18582 l -0.004,-0.0561 -0.007,-0.11421 c -0.003,-0.18061 -0.075,-0.34989 -0.20342,-0.4781 -0.068,-0.0678 -0.17624,-0.15776 -0.17624,-0.15776 0.10064,-0.43093 0.27654,-0.84767 0.52726,-1.22962 l -0.25149,-0.28939 c -0.0566,-0.0578 -0.0772,-0.13506 -0.0685,-0.20953 -1.18811,0.83499 -2.4346,2.03633 -3.68447,3.44354 0.44717,-0.28113 0.94486,-0.4891 1.4774,-0.60587 l 0.0286,-0.46165 c 0,-0.17123 0.13947,-0.30971 0.31123,-0.30971 l 0.62725,4.9e-4 h 0.19322 0.19372 l 0.3282,4.9e-4 c 0.17188,1.3e-4 0.31087,0.13887 0.31071,0.31019 l 0.0277,0.46165 c 0.12831,0.0283 0.25458,0.062 0.37867,0.10065 0.19996,0.0623 0.39427,0.13767 0.58165,0.22502 0.0759,0.0354 0.15062,0.073 0.22429,0.11223 0.0833,0.0444 0.16463,0.0912 0.24469,0.14033 0.009,0.005 0.0184,0.0119 0.0277,0.017 0.0118,0.008 0.025,0.0158 0.0374,0.0237 l 0.34761,-0.30633 c 0.0607,-0.0605 0.14034,-0.091 0.21993,-0.091 0.0169,0 0.0341,0.001 0.051,0.004 0.062,0.0105 0.12146,0.0389 0.16944,0.0867 l 0.009,0.009 0.8734,0.87153 0.066,0.0663 c 0.0246,0.0246 0.044,0.0523 0.0588,0.0818 0.0412,0.0833 0.0428,0.18087 0.004,0.26518 -0.0149,0.0331 -0.0362,0.0643 -0.0636,0.0914 l -0.30781,0.346 c 0.008,0.0119 0.0146,0.0233 0.0219,0.0348 0.0499,0.0797 0.0972,0.16112 0.14226,0.2439 0.0398,0.0731 0.0777,0.14722 0.11355,0.22259 0.0913,0.19157 0.1703,0.39032 0.23498,0.59522 0.0408,0.12922 0.0759,0.26065 0.10539,0.39438 l 0.46315,0.0281 c 0.17189,1.3e-4 0.31087,0.13933 0.31072,0.31067 v 0.29471 0.1955 0.19406 0.65376 c 0,0.17122 -0.13943,0.30971 -0.3112,0.30971 l -0.46267,0.0275 c -0.11961,0.53748 -0.33252,1.03982 -0.62097,1.48949 l 0.30732,0.34648 c 0.12145,0.12132 0.12119,0.31784 0,0.43891 l -0.94964,0.94509 c -0.0607,0.0605 -0.14034,0.091 -0.21992,0.091 -0.0797,0 -0.15963,-0.0303 -0.22044,-0.091 l -0.34711,-0.30729 c -0.45163,0.28673 -0.95592,0.49822 -1.49535,0.61651 l -0.0286,0.46118 c 0,0.17124 -0.13945,0.31018 -0.31122,0.31018 l -1.34238,-0.001 c -0.1719,-1.3e-4 -0.3109,-0.13935 -0.31073,-0.31068 l -0.0277,-0.46117 c -0.53924,-0.11922 -1.04323,-0.33143 -1.49436,-0.61892 l -0.34762,0.30631 c -0.0607,0.0605 -0.14037,0.091 -0.21993,0.091 -0.0797,0 -0.15965,-0.0303 -0.22043,-0.091 l -0.94818,-0.94702 c -0.12145,-0.1212 -0.12132,-0.31786 0,-0.43892 l 0.3078,-0.34551 c -0.28767,-0.45016 -0.49934,-0.95326 -0.61802,-1.49094 l -0.46512,-0.0281 c -0.17189,-1.3e-4 -0.31084,-0.13933 -0.31072,-0.31067 l 10e-4,-1.05107 c -1.23174,1.69045 -3.49901,5.29936 -3.49901,5.29936 z m 13.87222,-15.42045 c -0.45012,0.0731 -0.92073,0.23329 -1.4065,0.46504 l 0.1534,0.13841 c 0.38876,-0.24116 0.8108,-0.40692 1.24532,-0.49747 z m 0.89477,1.04913 0.0718,0.38277 0.31897,1.6971 c 0.0519,0.0344 0.10091,0.0743 0.14613,0.12053 0.0527,0.0536 0.0971,0.11224 0.13351,0.17421 l 1.67936,0.35278 0.38259,0.0804 c -0.003,-0.28575 -0.0474,-0.57099 -0.13595,-0.84588 -0.0403,-0.1254 -0.0897,-0.24881 -0.14808,-0.36875 -0.13028,-0.26754 -0.30525,-0.51895 -0.52531,-0.74329 -0.22002,-0.22434 -0.4682,-0.40425 -0.73361,-0.54005 -0.11895,-0.0609 -0.24168,-0.11276 -0.36655,-0.15581 -0.26657,-0.0919 -0.5439,-0.14338 -0.82291,-0.15389 z m -0.10776,2.41232 c -0.0473,0 -0.0947,0.008 -0.13982,0.0237 -0.0556,0.0195 -0.10749,0.0511 -0.15245,0.0948 -0.16508,0.16093 -0.16819,0.42485 -0.007,0.58942 l 0.0119,0.0119 c 0.003,0.001 0.003,0.003 0.004,0.004 0.0797,0.073 0.18151,0.10986 0.28306,0.10986 0.10539,0 0.21094,-0.0398 0.29227,-0.11909 0.0348,-0.034 0.0622,-0.0725 0.0826,-0.11368 0.0761,-0.15412 0.0511,-0.34537 -0.0763,-0.4752 -0.0819,-0.0835 -0.19005,-0.12528 -0.29857,-0.12528 z m -4.75889,1.77306 c -0.37862,0 -0.74262,0.0611 -1.08314,0.17422 -0.15307,0.0508 -0.30163,0.11249 -0.44424,0.1834 -0.66381,0.33012 -1.20477,0.86855 -1.53709,1.52966 -0.0714,0.14203 -0.13324,0.28932 -0.18449,0.44181 -0.0373,0.11078 -0.0689,0.22422 -0.0947,0.3397 l 0.37384,4.9e-4 2.17843,0.001 c 0.16042,-0.16958 0.37488,-0.28769 0.61611,-0.32664 l 1.15208,-1.76048 0.12238,-0.1868 0.11552,-0.17615 c -0.0415,-0.0157 -0.0835,-0.0308 -0.1258,-0.0451 -0.0336,-0.0119 -0.0675,-0.0217 -0.10143,-0.0319 -0.0755,-0.0227 -0.1521,-0.0426 -0.22963,-0.0601 v -4.9e-4 c -0.24289,-0.0547 -0.49547,-0.0835 -0.75495,-0.0836 z m 11.80689,0.20374 0.0486,0.25744 0.21459,1.14203 c 0.0349,0.0231 0.0681,0.0502 0.0985,0.0813 0.0354,0.0361 0.0652,0.0755 0.0898,0.11711 l 1.12976,0.2376 0.2578,0.0541 c -2.5e-4,-0.02 -0.001,-0.04 -0.003,-0.0599 -0.46898,-0.61451 -0.93962,-1.2024 -1.41474,-1.76679 -0.13811,-0.0368 -0.27943,-0.0576 -0.42142,-0.063 z m -9.31869,0.86378 -0.036,0.0532 -0.22576,0.33681 -0.35976,0.5352 -0.10973,0.16357 -0.10973,0.16405 -0.58308,0.86814 c 0.0157,0.0732 0.0237,0.14908 0.0237,0.22696 -6e-5,0.0905 -0.0118,0.17823 -0.0325,0.26227 l 1.14822,1.71694 0.26167,0.391 c 0.24016,-0.24799 0.44309,-0.5321 0.5996,-0.84346 0.0714,-0.142 0.13323,-0.28983 0.18449,-0.44229 0.11434,-0.34012 0.17639,-0.70409 0.17672,-1.08252 0,-0.26771 -0.0306,-0.52815 -0.0888,-0.77814 -0.0179,-0.0771 -0.0386,-0.15288 -0.0617,-0.22793 -0.008,-0.0256 -0.0163,-0.0511 -0.0248,-0.0764 -0.0188,-0.0568 -0.0394,-0.11303 -0.0611,-0.16841 -0.0369,-0.0934 -0.0777,-0.18468 -0.12238,-0.27389 -0.0946,-0.18884 -0.20604,-0.36778 -0.33256,-0.53473 -0.0768,-0.10131 -0.15917,-0.19826 -0.24664,-0.29035 z m -6.83147,0.66248 c -0.17584,0.22698 -0.34983,0.45956 -0.52434,0.69248 l 0.31556,-0.0188 c 0.0516,-0.23205 0.12382,-0.45603 0.20878,-0.67361 z m 12.42734,0.014 0.42238,4.9e-4 h 0.13015 0.13015 0.22091 c 0.11566,9e-5 0.20935,0.0938 0.20926,0.20905 l 0.0184,0.31067 c 0.0864,0.0191 0.17137,0.0418 0.2549,0.0677 0.13457,0.0419 0.26517,0.0926 0.3913,0.15147 0.0511,0.0238 0.10143,0.049 0.15098,0.0755 0.056,0.0299 0.11118,0.0613 0.16508,0.0943 0.007,0.004 0.0119,0.008 0.0184,0.0119 0.008,0.005 0.017,0.0105 0.0253,0.0155 l 0.23402,-0.20615 c 0.0408,-0.0407 0.0946,-0.061 0.14807,-0.061 0.0119,0 0.0227,0.001 0.034,0.003 0.0418,0.007 0.0818,0.0263 0.11408,0.0585 l 0.005,0.005 0.58796,0.58698 0.0447,0.044 c 0.0166,0.0166 0.0295,0.0353 0.0394,0.0552 0.0278,0.0561 0.0289,0.12186 0.003,0.17858 -0.0105,0.0223 -0.0242,0.0436 -0.0427,0.0619 l -0.20732,0.23276 c 0.005,0.008 0.009,0.0154 0.0146,0.0232 0.0336,0.0536 0.0657,0.10828 0.0962,0.16404 0.0269,0.0491 0.052,0.0993 0.0763,0.15002 0.0614,0.12896 0.11421,0.2623 0.15778,0.4002 0.0275,0.0869 0.0515,0.17566 0.0714,0.26567 l 0.3117,0.0188 c 0.11566,9e-5 0.20935,0.0937 0.20924,0.20905 v 0.1984 0.1316 0.13068 0.43987 c 0,0.11527 -0.094,0.20857 -0.20971,0.20857 l -0.31123,0.0184 c -0.0805,0.36174 -0.22386,0.70005 -0.418,1.00267 l 0.20681,0.23326 c 0.0817,0.0815 0.0815,0.2137 0,0.29518 l -0.63938,0.63635 c -0.0408,0.0407 -0.0946,0.061 -0.14808,0.061 -0.0536,0 -0.10709,-0.0206 -0.14807,-0.0615 l -0.23354,-0.20662 c -0.30396,0.19296 -0.64339,0.3351 -1.00644,0.41471 l -0.0194,0.31068 c 0,0.11526 -0.0937,0.20857 -0.20925,0.20857 l -0.90353,-9.9e-4 c -0.11566,-8e-5 -0.20934,-0.0933 -0.20925,-0.20856 l -0.0184,-0.31068 c -0.36292,-0.0802 -0.70235,-0.22315 -1.00596,-0.41665 l -0.23402,0.20615 c -0.0408,0.0407 -0.0944,0.0614 -0.14808,0.0614 -0.0536,0 -0.10723,-0.0207 -0.14806,-0.0614 l -0.63845,-0.63732 c -0.0817,-0.0815 -0.0817,-0.21371 0,-0.29518 l 0.20731,-0.23277 c -0.1936,-0.30297 -0.33618,-0.64129 -0.41606,-1.00315 l -0.31364,-0.0188 c -0.11566,-8e-5 -0.20935,-0.0938 -0.20925,-0.20904 l 0.003,-0.90058 c 7e-5,-0.11526 0.0942,-0.20857 0.20974,-0.20857 l 0.31169,-0.0184 c 0.0805,-0.36172 0.22343,-0.70003 0.41753,-1.00267 l -0.20683,-0.23325 c -0.0817,-0.0815 -0.0815,-0.21371 0,-0.29518 l 0.63941,-0.63635 c 0.0408,-0.0407 0.0946,-0.061 0.14808,-0.061 0.0536,0 0.10709,0.0205 0.14808,0.0615 l 0.23353,0.20664 c 0.30397,-0.19298 0.6434,-0.33511 1.00644,-0.41472 l 0.0194,-0.31068 c 0,-0.11527 0.0937,-0.20857 0.20925,-0.20857 z m 3.65049,0.0827 c -0.0317,0 -0.0638,0.005 -0.0942,0.0165 -0.0374,0.0132 -0.0727,0.034 -0.10288,0.0634 -0.11105,0.10829 -0.11303,0.28607 -0.004,0.39681 l 0.008,0.008 c 0.003,7.2e-4 0.003,10e-4 0.003,0.003 0.0536,0.0491 0.12198,0.074 0.19033,0.074 0.0709,0 0.14189,-0.027 0.19662,-0.0804 0.0233,-0.0229 0.0422,-0.0487 0.0559,-0.0764 0.0512,-0.10368 0.0342,-0.23249 -0.0515,-0.31987 -0.0551,-0.0563 -0.12791,-0.0847 -0.20099,-0.0847 z m -11.73504,1.08542 c -0.27812,2.5e-4 -0.50373,0.2245 -0.50396,0.50183 v 0.0208 c 8e-5,0.003 1.3e-4,0.004 0,0.007 0.0142,0.26496 0.23414,0.47547 0.50348,0.47568 0.0587,0 0.1146,-0.0105 0.16702,-0.0286 0.19612,-0.0688 0.33724,-0.25474 0.33741,-0.47375 0,-0.20209 -0.11935,-0.37634 -0.29178,-0.45633 -0.0643,-0.0298 -0.13604,-0.0464 -0.21169,-0.0465 z m 8.53171,0.10842 c -0.25478,0 -0.50004,0.041 -0.72922,0.11711 -0.10301,0.0343 -0.20259,0.0756 -0.29859,0.12343 -0.44677,0.22217 -0.81095,0.58435 -1.0346,1.02929 -0.0481,0.0956 -0.0898,0.19497 -0.12436,0.2976 -0.025,0.0746 -0.0462,0.15069 -0.0636,0.22842 l 0.25148,4.9e-4 1.46623,10e-4 c 0.10802,-0.11408 0.25226,-0.19396 0.41461,-0.22019 l 0.77535,-1.18461 0.0826,-0.12581 0.0777,-0.11855 c -0.0279,-0.0105 -0.056,-0.0206 -0.0844,-0.03 -0.0227,-0.008 -0.0456,-0.0149 -0.0685,-0.0217 -0.0506,-0.0152 -0.10196,-0.029 -0.15392,-0.0406 h -4.8e-4 c -0.16332,-0.0367 -0.33335,-0.056 -0.50785,-0.0561 z m 1.67496,0.71813 -0.0242,0.0363 -0.15199,0.22647 -0.24177,0.36004 -0.0738,0.11039 -0.0738,0.10986 -0.39274,0.58457 c 0.0105,0.0493 0.0165,0.10051 0.0165,0.15291 -4e-5,0.0609 -0.008,0.12001 -0.0219,0.17664 l 0.77243,1.1551 0.17624,0.26325 c 0.16162,-0.16691 0.29812,-0.35808 0.40344,-0.56764 0.0481,-0.0955 0.0898,-0.19498 0.12422,-0.2976 h -4.9e-4 c 0.0769,-0.2289 0.11869,-0.4736 0.11896,-0.72829 0,-0.18018 -0.0204,-0.35583 -0.0597,-0.52409 -0.0118,-0.0519 -0.0262,-0.10288 -0.0418,-0.1534 -0.005,-0.0172 -0.0105,-0.0343 -0.0161,-0.0512 -0.0132,-0.0382 -0.0266,-0.0759 -0.0412,-0.11329 -0.0249,-0.063 -0.0524,-0.12488 -0.0825,-0.18486 -0.0636,-0.12712 -0.13869,-0.24717 -0.22383,-0.35954 -0.0518,-0.0682 -0.10723,-0.13352 -0.16604,-0.1955 z m -13.55078,0.41616 c 0.0256,0.11553 0.0566,0.22891 0.0937,0.33972 0.051,0.15257 0.11277,0.30015 0.18399,0.44228 0.33121,0.66167 0.87141,1.20133 1.53469,1.53257 0.14249,0.0711 0.29027,0.1328 0.44326,0.18389 0.34122,0.11395 0.7064,0.17583 1.08606,0.17614 h 0.003 c 0.37862,0 0.7431,-0.0616 1.08365,-0.17469 0.0339,-0.0118 0.0672,-0.0226 0.10051,-0.0348 l -1.3963,-2.14182 c -0.22685,-0.0447 -0.42788,-0.15979 -0.58018,-0.32132 l -2.17843,-0.001 z m 17.91496,0.7041 h 0.003 l 0.38793,0.004 c 0.0497,4.9e-4 0.0893,0.041 0.0888,0.0905 l 0.007,0.13356 c 0.15062,0.0349 0.29663,0.0959 0.43017,0.18292 l 0.10103,-0.0871 c 0.0174,-0.017 0.0405,-0.0257 0.0631,-0.0257 0.0233,0 0.0465,0.009 0.0642,0.0271 l 0.27091,0.27583 c 0.0348,0.0354 0.0341,0.0922 -0.003,0.12685 l -0.0898,0.0992 c 0.0843,0.13501 0.14216,0.28124 0.1738,0.43214 l 0.1374,0.009 c 0.0497,4.9e-4 0.0894,0.041 0.0889,0.0905 l -0.004,0.38665 c -0.003,0.0491 -0.0406,0.0885 -0.0898,0.0885 -0.003,0 -0.003,1e-5 -0.003,0 l -0.13401,0.007 c -0.035,0.15015 -0.0962,0.29567 -0.18351,0.42875 l 0.0873,0.10064 c 0.0348,0.0354 0.0341,0.0922 -0.003,0.12672 l -0.27721,0.27002 c -0.0174,0.017 -0.0399,0.0257 -0.0626,0.0257 -0.0233,0 -0.047,-0.009 -0.0645,-0.0271 l -0.0991,-0.0896 c -0.12843,0.0797 -0.26714,0.13592 -0.41026,0.1684 -0.0105,-0.0178 -0.0232,-0.0348 -0.0383,-0.0498 -0.0448,-0.0447 -0.10394,-0.0698 -0.16702,-0.0711 l -0.0597,-0.004 c -0.003,-0.001 -0.003,-0.004 -0.003,-0.005 -0.0188,-0.0663 -0.0419,-0.1312 -0.0685,-0.19454 0.0119,4.9e-4 0.0232,9.8e-4 0.0345,9.8e-4 0.10236,0 0.20453,-0.0159 0.30293,-0.0474 0.0439,-0.014 0.0868,-0.0311 0.1287,-0.0512 0.0935,-0.0452 0.18133,-0.10604 0.25973,-0.18243 0.0784,-0.0764 0.14139,-0.16237 0.18887,-0.25454 0.005,-0.009 0.009,-0.0183 0.0136,-0.0275 l -0.72193,-0.16065 c -0.052,0.034 -0.11197,0.0508 -0.17187,0.0508 -0.004,0 -0.009,-3e-4 -0.0136,-5e-4 l -0.0922,0.0905 -0.30441,-0.3039 0.0956,-0.0934 c -0.003,-0.0673 0.0194,-0.13499 0.0611,-0.19163 l -0.1437,-0.71812 c -0.0119,0.005 -0.0233,0.0105 -0.0349,0.0165 -0.0935,0.0452 -0.18134,0.10552 -0.25974,0.18195 -0.0784,0.0764 -0.14139,0.16286 -0.18887,0.25503 -0.0213,0.0414 -0.0394,0.0839 -0.0544,0.12725 -0.0407,0.11711 -0.0589,0.24032 -0.0539,0.36294 -0.0611,-0.025 -0.12369,-0.0468 -0.18743,-0.0648 l -0.003,-0.0194 -0.003,-0.0396 c -0.003,-0.063 -0.0262,-0.12225 -0.0709,-0.16695 -0.0236,-0.0236 -0.0616,-0.0547 -0.0616,-0.0547 0.035,-0.15015 0.0967,-0.2952 0.18399,-0.42827 l -0.0879,-0.10117 c -0.0346,-0.0354 -0.0341,-0.0922 0.003,-0.12673 l 0.27722,-0.27003 c 0.0174,-0.017 0.0404,-0.0257 0.0631,-0.0257 0.0233,0 0.0465,0.009 0.0641,0.0271 l 0.0994,0.0896 c 0.13546,-0.084 0.2822,-0.14171 0.43358,-0.17326 l 0.009,-0.13307 c 0.003,-0.0491 0.0407,-0.0885 0.0898,-0.0885 z m -6.03914,0.12145 c -0.1871,2.4e-4 -0.33873,0.15118 -0.33888,0.33777 v 0.014 c 6e-5,0.001 8e-5,0.003 0,0.004 0.009,0.17832 0.15713,0.3202 0.33839,0.32035 0.0395,0 0.0773,-0.007 0.11263,-0.0194 0.13199,-0.0462 0.2266,-0.1715 0.22672,-0.31889 0,-0.13601 -0.0801,-0.25298 -0.19612,-0.3068 -0.0432,-0.02 -0.0914,-0.0314 -0.14227,-0.0315 z m 6.25858,0.42875 0.0248,0.13307 0.11118,0.59135 c 0.0182,0.0119 0.0352,0.0259 0.051,0.0422 0.0184,0.0187 0.0339,0.0389 0.0466,0.0605 l 0.58504,0.12343 0.13302,0.0275 c -0.003,-0.0996 -0.0162,-0.19894 -0.047,-0.2947 -0.0142,-0.0437 -0.0312,-0.0864 -0.0515,-0.12818 -0.0454,-0.0933 -0.10643,-0.18073 -0.18302,-0.2589 -0.0767,-0.0781 -0.1634,-0.14093 -0.25586,-0.18824 -0.0415,-0.0212 -0.0842,-0.0393 -0.12765,-0.0541 -0.0929,-0.032 -0.18922,-0.0501 -0.28643,-0.0538 z m -8.50889,0.40745 c 0.0171,0.0777 0.0382,0.15384 0.0631,0.22841 l -5e-4,4.9e-4 c 0.0344,0.10275 0.0759,0.20195 0.12382,0.29762 0.2229,0.4453 0.58677,0.80829 1.03315,1.03121 0.0959,0.0478 0.19558,0.0894 0.29857,0.12382 0.22963,0.0767 0.47518,0.1183 0.73069,0.11856 h 0.003 c 0.25479,0 0.50006,-0.0415 0.72919,-0.11763 0.0229,-0.008 0.0456,-0.0154 0.068,-0.0237 l -0.93993,-1.4411 c -0.15268,-0.0302 -0.28832,-0.10762 -0.39082,-0.21631 l -1.46572,-0.001 z m 6.5829,0.39004 h 0.21847 0.0674 0.067 0.1146 c 0.0598,4e-5 0.10829,0.0487 0.10829,0.10842 l 0.009,0.16066 c 0.0448,0.009 0.0888,0.0219 0.13207,0.0353 0.0697,0.0217 0.13716,0.0474 0.20244,0.0778 0.0265,0.0119 0.0526,0.0256 0.0781,0.0393 0.029,0.0154 0.0576,0.0317 0.0855,0.0489 0.004,0.003 0.007,0.004 0.009,0.007 0.004,0.003 0.008,0.005 0.0132,0.008 l 0.12132,-0.10644 c 0.0211,-0.0211 0.049,-0.0315 0.0767,-0.0315 0.007,0 0.0119,7.1e-4 0.0175,0.001 0.0216,0.004 0.0426,0.0133 0.0593,0.03 l 0.003,0.003 0.30393,0.30391 0.0233,0.0232 c 0.009,0.008 0.0154,0.0183 0.0204,0.0286 0.0145,0.029 0.0149,0.0631 0.003,0.0925 -0.005,0.0119 -0.0119,0.0224 -0.0219,0.0319 l -0.10736,0.12053 0.008,0.0119 c 0.0174,0.0278 0.0338,0.0558 0.0495,0.0847 0.014,0.0254 0.0267,0.0511 0.0394,0.0775 0.0317,0.0668 0.0596,0.13621 0.0821,0.20759 0.0142,0.0451 0.0266,0.0909 0.0369,0.13744 l 0.16117,0.009 c 0.0599,4e-5 0.10828,0.0487 0.10828,0.10841 v 0.10262 0.0682 0.0677 0.22744 c 0,0.0597 -0.0485,0.10789 -0.10828,0.10789 l -0.16165,0.009 c -0.0416,0.18726 -0.11553,0.3621 -0.21606,0.51876 l 0.10683,0.12092 c 0.0423,0.0423 0.0423,0.11079 0,0.15293 l -0.33063,0.32906 c -0.0211,0.0211 -0.049,0.0319 -0.0767,0.0319 -0.0278,0 -0.0555,-0.0105 -0.0767,-0.0319 l -0.12093,-0.10696 c -0.15734,0.0999 -0.33299,0.17364 -0.52094,0.21486 l -0.0105,0.16066 c 0,0.0597 -0.0485,0.10789 -0.10828,0.10789 l -0.46753,-4.9e-4 c -0.0599,-5e-5 -0.10881,-0.0487 -0.10881,-0.10841 l -0.009,-0.16066 c -0.18787,-0.0415 -0.36327,-0.11513 -0.52044,-0.21534 l -0.12093,0.10644 c -0.0211,0.0211 -0.049,0.0319 -0.0767,0.0319 -0.0278,0 -0.0556,-0.0105 -0.0767,-0.0319 l -0.33063,-0.33003 c -0.0423,-0.0423 -0.0423,-0.11026 0,-0.15244 l 0.10723,-0.12092 c -0.10025,-0.15684 -0.1742,-0.33191 -0.21557,-0.51925 l -0.16408,-0.009 c -0.0599,-5e-5 -0.10828,-0.0482 -0.10828,-0.10788 l 0.003,-0.46601 c 5e-5,-0.0597 0.0483,-0.10842 0.10828,-0.10842 l 0.1612,-0.009 c 0.0418,-0.18725 0.11606,-0.36259 0.21654,-0.51924 l -0.10736,-0.12053 c -0.0423,-0.0423 -0.0423,-0.11079 0,-0.15293 l 0.33113,-0.32954 c 0.0211,-0.0211 0.049,-0.0315 0.0767,-0.0315 0.0278,0 0.0555,0.0105 0.0767,0.0319 l 0.12093,0.10696 c 0.15736,-0.0999 0.33299,-0.17364 0.52094,-0.21485 l 0.009,-0.16067 c 0,-0.0597 0.0489,-0.10789 0.10867,-0.10789 z m 1.88908,0.0426 c -0.0165,0 -0.0328,0.003 -0.0486,0.008 -0.0194,0.007 -0.0373,0.0182 -0.053,0.0335 -0.0574,0.0561 -0.059,0.14784 -0.003,0.20518 h -4.9e-4 c 0.003,0.001 0.003,0.003 0.004,0.004 0.003,4.9e-4 0.003,7.1e-4 0.003,9.9e-4 0.0278,0.0254 0.0627,0.0382 0.098,0.0382 0.0368,0 0.0736,-0.0136 0.10196,-0.0411 0.0119,-0.0119 0.0219,-0.0253 0.0291,-0.0397 0.0266,-0.0537 0.0177,-0.12027 -0.0267,-0.16551 -0.0286,-0.0291 -0.0665,-0.044 -0.10447,-0.044 z m -1.6604,0.61796 c -0.13189,0 -0.25859,0.0216 -0.37724,0.061 -0.0534,0.0178 -0.10525,0.0391 -0.15488,0.0639 -0.23127,0.115 -0.41975,0.30247 -0.5355,0.5328 -0.0249,0.0495 -0.0462,0.10077 -0.064,0.15389 -0.0132,0.0386 -0.024,0.0782 -0.0331,0.11855 h 0.13015 l 0.75934,4.9e-4 c 0.0558,-0.059 0.13054,-0.10011 0.21459,-0.11368 l 0.40102,-0.61313 0.0427,-0.0648 0.0403,-0.0615 c -0.0144,-0.005 -0.029,-0.0105 -0.0437,-0.0159 -0.0119,-0.004 -0.0237,-0.008 -0.0354,-0.0105 -0.0263,-0.008 -0.0531,-0.0148 -0.0801,-0.0208 -0.0842,-0.0188 -0.17179,-0.0295 -0.26171,-0.0295 z m 0.86855,0.37213 -0.0119,0.0184 -0.0792,0.11764 -0.12475,0.1863 -0.0383,0.057 -0.0383,0.0572 -0.20293,0.30246 c 0.005,0.0255 0.008,0.0518 0.008,0.0789 -10e-6,0.0315 -0.004,0.0622 -0.0105,0.0914 l 0.40006,0.59811 0.0913,0.13647 c 0.0837,-0.0864 0.15422,-0.18575 0.20875,-0.29422 0.0249,-0.0495 0.0462,-0.10077 0.0642,-0.15388 h -5e-4 c 0.0398,-0.11856 0.0616,-0.24513 0.0616,-0.37698 0,-0.0933 -0.0105,-0.18437 -0.0311,-0.27147 -0.007,-0.0269 -0.0134,-0.0532 -0.0213,-0.0793 -0.003,-0.009 -0.005,-0.0178 -0.008,-0.0266 -0.007,-0.0198 -0.0137,-0.0393 -0.0213,-0.0586 -0.0132,-0.0325 -0.0271,-0.0643 -0.0427,-0.0954 -0.0329,-0.0657 -0.0719,-0.12817 -0.11605,-0.18631 -0.0267,-0.0353 -0.0555,-0.069 -0.0859,-0.10117 z m -0.8671,0.64263 c -0.0969,0 -0.1752,0.078 -0.17527,0.1747 v 0.008 c 3e-5,7.3e-4 4e-5,10e-4 0,0.003 0.005,0.0923 0.0814,0.1659 0.17527,0.16598 0.0204,0 0.0401,-0.004 0.0582,-0.0105 0.0684,-0.024 0.11698,-0.0888 0.11698,-0.16502 0,-0.0703 -0.0414,-0.1308 -0.10143,-0.15872 -0.0224,-0.0105 -0.0474,-0.0165 -0.0738,-0.0165 z m -1.16373,0.43263 c 0.009,0.0403 0.0196,0.08 0.0325,0.11856 h -9.7e-4 c 0.0179,0.0532 0.0387,0.10433 0.0636,0.15389 0.11539,0.23051 0.30392,0.41883 0.53501,0.53424 0.0497,0.0248 0.10103,0.0461 0.15438,0.0639 0.11882,0.0397 0.24594,0.0614 0.37821,0.0614 h 0.003 c 0.13189,0 0.25903,-0.0216 0.37771,-0.061 0.0119,-0.004 0.0232,-0.008 0.0349,-0.0119 l -0.48646,-0.7462 c -0.079,-0.0155 -0.14893,-0.0555 -0.20196,-0.11184 l -0.75934,-9.7e-4 z m -7.27426,0.35229 v 26.93908 c 0,0 -2.57413,-5.13142 -2.57413,-13.46978 0,-8.33835 2.57413,-13.4693 2.57413,-13.4693 z m 1.28706,0 c 0,0 2.57411,5.13095 2.57411,13.4693 0,8.33836 -2.57411,13.46978 -2.57411,13.46978 z m -0.64327,26.84279 c 1.42146,3.4e-4 2.57367,1.72334 2.57363,3.84858 4e-5,2.12525 -1.15217,3.84823 -2.57363,3.84859 -1.42167,5e-5 -2.57417,-1.72305 -2.57413,-3.84859 -4e-5,-2.12555 1.15246,-3.84865 2.57413,-3.84858 z m -0.64379,7.60086 v 26.93957 c 0,0 -2.57413,-5.13143 -2.57413,-13.46978 0,-8.33836 2.57413,-13.46979 2.57413,-13.46979 z m 1.28706,0 c 0,0 2.57411,5.13143 2.57411,13.46979 0,6.75539 -1.67094,11.34992 -2.31242,12.87215 l 0.11645,0.10499 c 0.24812,-0.15391 0.5164,-0.26244 0.79283,-0.32519 0.0202,0.0345 0.0448,0.0668 0.0738,0.0958 0.0864,0.0863 0.20038,0.13499 0.32236,0.13744 l 0.11553,0.007 c 0.003,0.003 0.003,0.007 0.003,0.009 0.0366,0.12804 0.0808,0.25312 0.13206,0.37551 -0.0221,-7.3e-4 -0.044,-9.8e-4 -0.066,-9.8e-4 -0.19761,0 -0.39541,0.0302 -0.58552,0.091 -0.0847,0.0271 -0.16761,0.0601 -0.24858,0.0992 -0.18066,0.0873 -0.35052,0.20468 -0.50199,0.35229 -0.15149,0.14763 -0.27292,0.31458 -0.36462,0.49263 -0.009,0.0177 -0.0182,0.0353 -0.0267,0.0532 l 1.39533,0.31018 c 0.10064,-0.0656 0.21646,-0.0983 0.33209,-0.0983 0.008,0 0.0167,1.2e-4 0.0253,4.9e-4 l 0.17914,-0.17469 0.58797,0.58698 -0.18547,0.18051 c 0.003,0.13002 -0.037,0.26031 -0.11803,0.3697 l 0.27769,1.38739 c 0.0227,-0.0105 0.0456,-0.0202 0.068,-0.031 0.18065,-0.0873 0.35054,-0.20467 0.502,-0.35229 0.15148,-0.1476 0.27288,-0.31409 0.36461,-0.49214 0.0411,-0.0798 0.0763,-0.16206 0.10538,-0.24582 0.0785,-0.2263 0.11303,-0.46433 0.10341,-0.7012 0.11803,0.0483 0.23848,0.09 0.36168,0.12488 l 0.003,0.0377 0.005,0.0769 c 0.003,0.12159 0.0505,0.23552 0.13692,0.32181 0.0457,0.0457 0.11843,0.10604 0.11843,0.10604 -0.0677,0.29003 -0.18619,0.57043 -0.35491,0.8275 l 0.16944,0.19502 c 0.0671,0.0684 0.0656,0.17802 -0.003,0.24486 l -0.53504,0.52166 c -0.0337,0.0329 -0.0776,0.0494 -0.12132,0.0494 -0.0451,0 -0.0902,-0.0171 -0.12435,-0.0518 l -0.19175,-0.17324 c -0.26166,0.16231 -0.54555,0.27392 -0.83798,0.33488 l -0.019,0.25744 c -0.003,0.0948 -0.0784,0.17081 -0.17334,0.17081 -0.003,0 -0.003,1e-5 -0.003,0 l -0.74863,-0.008 c -0.0959,-9.8e-4 -0.17296,-0.0796 -0.17187,-0.17518 l -0.0132,-0.25793 c -0.29098,-0.0676 -0.57227,-0.1851 -0.8302,-0.35326 l -0.19568,0.16841 c -0.0337,0.0329 -0.0776,0.0494 -0.12133,0.0494 -0.0451,0 -0.0902,-0.0171 -0.12435,-0.0518 l -0.52338,-0.53376 c -0.067,-0.0684 -0.0659,-0.17802 0.003,-0.24486 l 0.1738,-0.19114 c -0.16284,-0.26079 -0.2748,-0.54376 -0.33595,-0.83524 l -0.25877,-0.0188 c -0.0959,-9.7e-4 -0.17298,-0.079 -0.17188,-0.17469 l 0.009,-0.74668 c 0.003,-0.095 0.0788,-0.17082 0.1738,-0.17082 0.003,0 0.003,-1e-5 0.003,0 l 0.25827,-0.0132 c 0.0677,-0.29003 0.18621,-0.57042 0.35492,-0.82749 l -0.16946,-0.19502 c -0.0671,-0.0684 -0.0656,-0.17754 0.003,-0.24438 l 0.53551,-0.52214 c 0.0165,-0.0161 0.0391,-0.0159 0.0593,-0.0242 z m 4.50253,21.86524 0.90302,4.8e-4 c 0.11566,1e-4 0.20935,0.0938 0.20926,0.20906 l 0.019,0.31067 c 0.36291,0.0802 0.70234,0.22268 1.00596,0.41616 l 0.23352,-0.20614 c 0.0408,-0.0407 0.0945,-0.061 0.14807,-0.061 0.0536,0 0.10763,0.0205 0.14857,0.0615 l 0.63794,0.63731 c 0.0817,0.0817 0.0817,0.21371 0,0.29519 l -0.2073,0.23276 c 0.19359,0.30298 0.33618,0.64129 0.41606,1.00316 l 0.31366,0.0188 c 0.11566,9e-5 0.20935,0.0938 0.20925,0.20906 l -0.003,0.90056 c -8e-5,0.11526 -0.0937,0.20857 -0.20925,0.20857 l -0.31169,0.0184 c -0.0805,0.36172 -0.22342,0.70003 -0.41754,1.00267 l 0.20682,0.23325 c 0.0817,0.0815 0.0817,0.21371 0,0.29518 l -0.63939,0.63587 c -0.0408,0.0407 -0.0946,0.061 -0.14807,0.061 -0.0536,0 -0.10709,-0.0202 -0.14807,-0.061 l -0.23355,-0.20664 c -0.30395,0.19298 -0.64388,0.33511 -1.00693,0.41473 l -0.019,0.31067 c 0,0.11527 -0.0937,0.20856 -0.20926,0.20856 l -0.4224,-4.9e-4 h -0.13015 -0.13015 -0.22092 c -0.11565,-8e-5 -0.20934,-0.0938 -0.20925,-0.20904 l -0.019,-0.31067 c -0.0864,-0.0191 -0.17087,-0.0418 -0.2544,-0.0677 -0.13457,-0.0419 -0.26567,-0.0927 -0.3918,-0.15147 -0.0511,-0.0238 -0.10143,-0.049 -0.15098,-0.0755 -0.056,-0.0299 -0.11065,-0.0613 -0.16458,-0.0943 -0.007,-0.004 -0.0132,-0.008 -0.019,-0.0118 -0.008,-0.005 -0.0165,-0.0105 -0.0248,-0.0156 l -0.234,0.20615 c -0.0408,0.0407 -0.0946,0.061 -0.14808,0.061 -0.0119,0 -0.0227,-0.001 -0.034,-0.003 -0.0418,-0.007 -0.0818,-0.0263 -0.11408,-0.0585 l -0.007,-0.005 -0.58747,-0.58698 -0.0446,-0.0445 c -0.0166,-0.0166 -0.0295,-0.0353 -0.0394,-0.0552 -0.0278,-0.056 -0.0288,-0.12185 -0.003,-0.17856 0.0105,-0.0223 0.0242,-0.0431 0.0427,-0.0615 l 0.20732,-0.23275 c -0.005,-0.008 -0.009,-0.0154 -0.0146,-0.0232 -0.0336,-0.0536 -0.0657,-0.10828 -0.0962,-0.16406 -0.0267,-0.0491 -0.0526,-0.0993 -0.0767,-0.15001 -0.0614,-0.12896 -0.11421,-0.26278 -0.1578,-0.40067 -0.0274,-0.0869 -0.051,-0.17519 -0.0709,-0.26519 l -0.31169,-0.0194 c -0.11566,-9e-5 -0.20934,-0.0933 -0.20925,-0.20857 v -0.19841 -0.1321 -0.13015 -0.43989 c 0,-0.11526 0.0937,-0.20856 0.20925,-0.20856 l 0.31169,-0.0188 c 0.0805,-0.36173 0.22389,-0.69956 0.41803,-1.00219 l -0.20684,-0.23325 c -0.0817,-0.0817 -0.0817,-0.2137 0,-0.29519 l 0.63894,-0.63635 c 0.0408,-0.0407 0.0946,-0.061 0.14808,-0.061 0.0536,0 0.10763,0.0206 0.14854,0.0614 l 0.23355,0.20615 c 0.30395,-0.19296 0.64338,-0.33462 1.00643,-0.41423 l 0.019,-0.31067 c 0,-0.11526 0.0942,-0.20857 0.20973,-0.20857 z m 0.45054,1.27608 c -0.25479,0 -0.50002,0.0415 -0.72923,0.11764 -0.0229,0.008 -0.0456,0.015 -0.068,0.0232 l 0.93992,1.44158 c 0.15268,0.03 0.28787,0.10762 0.39036,0.21631 l 1.46621,9.8e-4 0.25197,4.9e-4 c -0.0171,-0.0777 -0.0387,-0.15431 -0.0636,-0.22888 h 4.8e-4 c -0.0342,-0.10275 -0.0755,-0.20196 -0.12329,-0.29762 -0.22291,-0.44529 -0.58677,-0.80831 -1.03317,-1.03123 -0.0959,-0.0478 -0.19559,-0.0894 -0.29858,-0.12383 -0.22963,-0.0767 -0.47515,-0.11829 -0.73067,-0.11855 z m -1.65894,0.70265 c -0.16164,0.16692 -0.29815,0.35808 -0.40347,0.56763 -0.0481,0.0955 -0.0898,0.195 -0.12435,0.2976 h 4.9e-4 c -0.0769,0.22891 -0.11922,0.47361 -0.11948,0.7283 0,0.18017 0.0209,0.35534 0.0602,0.52359 0.0118,0.0519 0.0257,0.10341 0.0412,0.15389 0.005,0.0172 0.0105,0.0342 0.0165,0.0512 0.0132,0.0382 0.0266,0.0759 0.0412,0.11329 0.0249,0.0628 0.0524,0.12435 0.0825,0.18438 0.0636,0.12712 0.13869,0.24767 0.22382,0.36003 0.0518,0.0682 0.1071,0.13353 0.16602,0.19551 l 0.0238,-0.0364 0.15195,-0.22647 0.24226,-0.36051 0.0738,-0.10986 0.0738,-0.11039 0.39231,-0.5841 c -0.0105,-0.0493 -0.0161,-0.10051 -0.0161,-0.15291 5e-5,-0.0609 0.008,-0.12 0.0219,-0.17662 l -0.77292,-1.15559 z m -15.4729,0.82217 c -0.27901,0.0105 -0.55634,0.0619 -0.82291,0.15389 -0.12488,0.0431 -0.24759,0.095 -0.36658,0.15582 -0.26541,0.13579 -0.51354,0.31571 -0.73358,0.54004 -0.22003,0.22434 -0.39506,0.47575 -0.52531,0.74329 -0.0584,0.11988 -0.10776,0.24338 -0.14808,0.36876 -0.0361,0.11223 -0.0632,0.22655 -0.085,0.34164 0.0867,0.14588 0.18434,0.29049 0.27235,0.43649 l 0.0593,-0.0132 1.67934,-0.35277 c 0.0365,-0.0619 0.0809,-0.12053 0.13351,-0.17421 0.0453,-0.0461 0.0943,-0.0861 0.14613,-0.12054 l 0.31898,-1.69708 z m 17.1328,0.43504 c -0.0395,0 -0.0773,0.007 -0.11262,0.0188 -0.132,0.0462 -0.22661,0.1715 -0.22673,0.31889 0,0.13603 0.0805,0.25345 0.19662,0.30729 0.0432,0.02 0.0914,0.0314 0.14226,0.0315 h 4.9e-4 c 0.18711,-2.5e-4 0.33874,-0.15118 0.33889,-0.33777 v -0.0141 c -5e-5,-0.001 -8e-5,-0.003 0,-0.004 -0.009,-0.17832 -0.15762,-0.3202 -0.33889,-0.32035 z m 0.5326,0.83862 c -0.10801,0.11408 -0.25275,0.19349 -0.41509,0.2197 l -0.77535,1.18512 -0.0821,0.12527 -0.0777,0.11909 c 0.0279,0.0105 0.056,0.0206 0.0844,0.03 0.0226,0.008 0.0456,0.0145 0.0685,0.0213 0.0506,0.0151 0.10196,0.029 0.1539,0.0407 h 4.8e-4 c 0.16332,0.0367 0.33335,0.0565 0.50785,0.0566 h 0.003 c 0.25479,0 0.50003,-0.041 0.72922,-0.11711 0.10301,-0.0342 0.20258,-0.0756 0.29859,-0.12343 0.44676,-0.22216 0.81095,-0.58483 1.0346,-1.02976 0.0481,-0.0956 0.0898,-0.1945 0.12422,-0.29713 0.025,-0.0746 0.0462,-0.15115 0.0636,-0.22889 h -0.25199 z m -17.55762,1.13865 c -0.10855,0 -0.21671,0.0419 -0.29859,0.12541 -0.12739,0.12989 -0.15238,0.32109 -0.0763,0.47521 0.0204,0.0412 0.0477,0.0797 0.0826,0.11368 0.0813,0.0793 0.18687,0.11908 0.29227,0.11908 0.10156,0 0.20336,-0.0369 0.28305,-0.10986 10e-4,-0.001 10e-4,-0.003 0.004,-0.004 l 0.0119,-0.0119 c 0.16137,-0.16457 0.15828,-0.42849 -0.007,-0.58941 -0.0449,-0.0437 -0.0969,-0.0752 -0.15245,-0.0949 -0.0451,-0.0158 -0.0926,-0.0237 -0.13983,-0.0237 z m 13.8217,1.29158 c -0.0709,0 -0.14189,0.0265 -0.19662,0.0798 -0.0233,0.0229 -0.042,0.0491 -0.0559,0.0769 -0.0512,0.10367 -0.0342,0.23249 0.0515,0.31987 0.0551,0.0563 0.12791,0.0842 0.20099,0.0842 0.0317,0 0.0634,-0.005 0.0937,-0.0159 0.0374,-0.0132 0.0727,-0.0344 0.10288,-0.0639 0.11105,-0.10829 0.11303,-0.28557 0.004,-0.39633 l -0.008,-0.008 c -0.003,-7.3e-4 -0.003,-0.001 -0.003,-0.003 -0.0536,-0.0491 -0.12198,-0.074 -0.19031,-0.074 z m -1.9114,0.29471 c 0.003,0.19231 0.0318,0.38456 0.0913,0.56956 0.0271,0.0844 0.0602,0.16705 0.0996,0.24777 0.0877,0.18007 0.20584,0.34938 0.35394,0.50037 0.14808,0.15098 0.31514,0.27202 0.49374,0.36342 0.0801,0.041 0.1626,0.076 0.24664,0.10499 0.17941,0.0619 0.36619,0.0966 0.55396,0.10354 l -0.0486,-0.25744 -0.21461,-1.14206 c -0.0349,-0.023 -0.0681,-0.0502 -0.0985,-0.0813 -0.0354,-0.0361 -0.0652,-0.0755 -0.0898,-0.11711 l -1.13026,-0.2376 z m -7.15435,0.18678 c -0.25948,2e-4 -0.51206,0.029 -0.75494,0.0838 -0.0776,0.0174 -0.15417,0.0378 -0.22963,0.0605 -0.034,0.0105 -0.0678,0.0207 -0.10144,0.0319 -0.0423,0.0141 -0.0842,0.0293 -0.1258,0.0451 l 0.11553,0.17615 0.12238,0.18679 1.1521,1.76048 c 0.24125,0.039 0.45567,0.15708 0.6161,0.32664 l 2.17844,-0.001 0.37384,-4.9e-4 c -0.0258,-0.11553 -0.0574,-0.22894 -0.0947,-0.33971 -0.0512,-0.15248 -0.11329,-0.29978 -0.18446,-0.44181 -0.33233,-0.6611 -0.87328,-1.19954 -1.5371,-1.52965 -0.14261,-0.071 -0.29119,-0.13258 -0.44426,-0.18341 -0.34052,-0.11303 -0.70453,-0.17421 -1.08314,-0.17421 z m -2.48526,1.06752 c -0.0875,0.0921 -0.1698,0.18902 -0.24664,0.29036 -0.12646,0.16694 -0.23806,0.34541 -0.33257,0.53423 -0.0446,0.0892 -0.0855,0.18093 -0.12237,0.27438 -0.0219,0.0555 -0.0423,0.11158 -0.0611,0.16841 -0.008,0.0253 -0.017,0.0505 -0.0248,0.076 -0.0231,0.0751 -0.0437,0.15131 -0.0616,0.22842 -0.0582,0.25 -0.0888,0.51043 -0.0888,0.77814 2.5e-4,0.37843 0.0624,0.74242 0.17674,1.08252 10e-4,0.005 0.004,0.0105 0.007,0.0165 0.29119,0.3829 0.58399,0.75457 0.87827,1.11929 l 0.16118,-0.24099 1.1482,-1.71693 c -0.0211,-0.084 -0.0324,-0.17178 -0.0325,-0.26228 0,-0.0779 0.008,-0.15373 0.0238,-0.22696 l -0.58309,-0.86863 -0.10973,-0.16355 -0.10973,-0.16357 -0.35977,-0.53521 -0.22576,-0.33681 z m 2.48868,1.84421 c -0.0758,5e-5 -0.14724,0.017 -0.21169,0.0469 -0.17247,0.08 -0.29229,0.25424 -0.29229,0.45632 1.9e-4,0.21902 0.14132,0.40503 0.33744,0.47376 0.0523,0.0183 0.10829,0.0286 0.167,0.0286 0.26933,-2.1e-4 0.4893,-0.21071 0.50347,-0.47567 -1.3e-4,-0.003 -8e-5,-0.004 0,-0.007 v -0.0208 c -2.2e-4,-0.27732 -0.22581,-0.50157 -0.50393,-0.50182 z m 3.34411,1.24318 -0.37383,4.9e-4 -2.17845,0.001 c -0.15231,0.16153 -0.35333,0.27663 -0.58018,0.32132 l -1.39628,2.14182 c 0.0333,0.0119 0.0668,0.0236 0.10051,0.0348 0.34055,0.11302 0.70504,0.17468 1.08364,0.17468 h 0.003 c 0.37964,-2.3e-4 0.74485,-0.0627 1.08607,-0.17662 0.153,-0.0511 0.30078,-0.11223 0.44326,-0.18341 0.66328,-0.33123 1.20345,-0.87092 1.53466,-1.53255 0.0711,-0.14215 0.13301,-0.28974 0.18402,-0.44231 0.0369,-0.11079 0.0681,-0.22417 0.0937,-0.33971 z m 6.56639,0.45294 0.0485,0.25744 0.2146,1.14204 c 0.0349,0.0232 0.0681,0.0502 0.0985,0.0813 0.0354,0.0361 0.0652,0.0755 0.0898,0.11711 l 1.13025,0.2376 0.25732,0.0541 c -0.003,-0.19231 -0.0317,-0.38458 -0.0913,-0.56956 -0.0271,-0.0844 -0.0602,-0.16705 -0.0996,-0.24778 -0.0877,-0.18006 -0.20534,-0.34938 -0.35344,-0.50036 -0.14808,-0.15099 -0.31564,-0.27204 -0.49424,-0.36342 -0.0801,-0.041 -0.1621,-0.076 -0.24614,-0.10499 -0.1794,-0.0619 -0.36668,-0.0964 -0.55445,-0.10354 z m -0.0723,1.62354 c -0.0317,0 -0.0635,0.005 -0.0937,0.0159 -0.0374,0.0132 -0.0727,0.0344 -0.10288,0.0639 -0.11105,0.10828 -0.11303,0.28558 -0.004,0.39634 l 0.008,0.008 c 0.003,7.4e-4 0.003,0.001 0.003,0.003 0.0536,0.0491 0.12199,0.074 0.19031,0.074 0.0709,0 0.14189,-0.0265 0.19663,-0.0798 0.0233,-0.0229 0.0422,-0.0491 0.0559,-0.0769 0.0512,-0.10367 0.0348,-0.23249 -0.051,-0.31987 -0.0549,-0.0563 -0.12844,-0.0842 -0.20147,-0.0842 z m -3.20333,1.19333 c -0.25479,0 -0.49956,0.041 -0.72875,0.11711 -0.10301,0.0342 -0.20306,0.0756 -0.29906,0.12343 -0.44677,0.22218 -0.81096,0.58486 -1.0346,1.02978 -0.0481,0.0956 -0.0893,0.19497 -0.12383,0.2976 -0.025,0.0746 -0.0468,0.15068 -0.0641,0.22841 h 0.25199 l 1.46572,0.001 c 0.10802,-0.11408 0.25275,-0.19347 0.4151,-0.21969 l 0.77536,-1.18462 0.0821,-0.12581 0.0777,-0.11908 c -0.0279,-0.0105 -0.056,-0.0206 -0.0844,-0.03 -0.0226,-0.008 -0.0456,-0.0145 -0.0685,-0.0213 -0.0506,-0.0151 -0.10196,-0.029 -0.1539,-0.0407 h -4.8e-4 c -0.16332,-0.0367 -0.33347,-0.0565 -0.50783,-0.0566 z m 1.67545,0.71813 -0.0242,0.0362 -0.15198,0.22647 -0.24177,0.36052 -0.0743,0.10986 -0.0738,0.11039 -0.39228,0.58457 c 0.0105,0.0493 0.0161,0.1 0.0161,0.15242 -5e-5,0.0609 -0.008,0.12001 -0.0219,0.17664 l 0.77293,1.15559 0.0951,0.14227 c 0.11052,-0.0595 0.22264,-0.12791 0.3345,-0.19454 0.0547,-0.0809 0.10539,-0.16481 0.14954,-0.2526 0.0481,-0.0955 0.0898,-0.19452 0.12436,-0.29712 0.0769,-0.22891 0.11869,-0.47409 0.11895,-0.72879 0,-0.18014 -0.021,-0.35533 -0.0602,-0.52359 -0.0119,-0.0519 -0.0257,-0.1034 -0.0412,-0.15388 -0.005,-0.0171 -0.0105,-0.0342 -0.0165,-0.0513 -0.0132,-0.0382 -0.0266,-0.0759 -0.0412,-0.11329 -0.0249,-0.0628 -0.0526,-0.12435 -0.0826,-0.18437 -0.0636,-0.12712 -0.13868,-0.24766 -0.22382,-0.36003 -0.0518,-0.0682 -0.1067,-0.13353 -0.16555,-0.1955 z m -1.67545,1.24173 c -0.18711,2.4e-4 -0.33873,0.15119 -0.33889,0.33777 v 0.014 c 5e-5,0.001 8e-5,0.003 0,0.004 0.009,0.17832 0.15763,0.32019 0.33889,0.32034 0.0395,0 0.0773,-0.007 0.11263,-0.0188 0.13199,-0.0462 0.2266,-0.17151 0.22672,-0.3189 0,-0.13602 -0.0805,-0.25345 -0.19662,-0.30729 -0.0432,-0.02 -0.0914,-0.0314 -0.14226,-0.0315 z m -2.24981,0.8362 c 0.0171,0.0777 0.0382,0.15432 0.0631,0.2289 h -4.9e-4 c 0.0344,0.10261 0.0759,0.20194 0.12383,0.2976 0.2229,0.44532 0.58626,0.8083 1.03266,1.03123 0.0959,0.0478 0.19561,0.0894 0.29859,0.12382 0.43085,0 0.89012,-0.11697 1.36036,-0.28309 l -0.76999,-1.18075 c -0.15268,-0.03 -0.28786,-0.10762 -0.39035,-0.21631 l -1.46622,-9.8e-4 z"
           id="path467" />
      </g>
      <path
         d="m -410.30345,-176.50359 c 2.74924,-7.33129 4.58206,-14.66257 4.58206,-21.99386 0,-7.33129 -2.02339,-14.62179 -4.77262,-21.95308 -2.74923,7.33129 -4.39149,14.62179 -4.39149,21.95308 0,7.33129 1.55149,15.51895 4.30073,22.85024"
         fill="#f39192"
         id="path471" />
      <g
         fill="none"
         stroke="#c03a31"
         stroke-linecap="round"
         transform="matrix(0.38109846,0,0,0.38109846,-105.80578,-169.86697)"
         id="g495">
        <path
           d="m -802,-116.30326 6,3.30326 -6,3.4641 6,3.4641 -6,5.32087 5,3.822727 -5,4.249066 5,3.750934 -5,4.865936 6,3.484917 -6,4.515083 5,3.639617 -5,4.124533 L -796.57735,-64 -802,-59.515083 -796.5359,-57 -802,-51.688667 l 5,4.224565 -5,4 5,4 -5,4 3,2"
           stroke-dasharray="8, 2, 1, 2"
           id="path473" />
        <path
           d="m -802,-114 2,1 -2,1"
           id="path475" />
        <path
           d="m -802,-106.46575 2,1 -2,1"
           id="path477" />
        <path
           d="m -802,-97.935239 2,1 -2,1"
           id="path479" />
        <path
           d="m -802,-89.902859 2,1 -2,1"
           id="path481" />
        <path
           d="m -802,-81.372348 2,1 -2,1"
           id="path483" />
        <path
           d="m -802,-73.277703 2,1 -2,1"
           id="path485" />
        <path
           d="m -802,-64.996258 2,1 -2,1"
           id="path487" />
        <path
           d="m -802,-56.714813 2,1 -2,1"
           id="path489" />
        <path
           d="m -802,-48.433368 2,1 -2,1"
           id="path491" />
        <path
           d="m -802,-40.151923 2,1 -2,1"
           id="path493" />
      </g>
      <g
         transform="matrix(0.24447453,0,0,0.24447453,-371.71856,-223.33405)"
         id="g523">
        <path
           d="m -303.44555,194.14569 c -11.24548,-29.98795 -19.64412,-58.4447 -19.64412,-88.43265 0,-29.987947 8.39864,-63.928685 19.64412,-93.91663 11.24548,29.987945 17.84081,63.928683 17.84081,93.91663 0,29.98795 -6.59533,58.4447 -17.84081,88.43265"
           fill="#f39192"
           id="path497" />
        <g
           fill="none"
           stroke="#f39192"
           stroke-linecap="round"
           transform="matrix(-1.5588473,0,0,1.5588473,-1549.8662,222.82332)"
           id="g521">
          <path
             d="m -802,-116.30326 6,3.30326 -6,3.4641 6,3.4641 -6,5.32087 5,3.822727 -5,4.249066 5,3.750934 -5,4.865936 6,3.484917 -6,4.515083 5,3.639617 -5,4.124533 L -796.57735,-64 -802,-59.515083 -796.5359,-57 -802,-51.688667 l 5,4.224565 -5,4 5,4 -5,4 3,2"
             stroke-dasharray="8, 1.99999, 1, 1.99999"
             id="path499" />
          <path
             d="m -802,-114 2,1 -2,1"
             id="path501" />
          <path
             d="m -802,-106.46575 2,1 -2,1"
             id="path503" />
          <path
             d="m -802,-97.935239 2,1 -2,1"
             id="path505" />
          <path
             d="m -802,-89.902859 2,1 -2,1"
             id="path507" />
          <path
             d="m -802,-81.372348 2,1 -2,1"
             id="path509" />
          <path
             d="m -802,-73.277703 2,1 -2,1"
             id="path511" />
          <path
             d="m -802,-64.996258 2,1 -2,1"
             id="path513" />
          <path
             d="m -802,-56.714813 2,1 -2,1"
             id="path515" />
          <path
             d="m -802,-48.433368 2,1 -2,1"
             id="path517" />
          <path
             d="m -802,-40.151923 2,1 -2,1"
             id="path519" />
        </g>
      </g>
      <g
         fill="none"
         stroke="#c03a31"
         stroke-linecap="round"
         transform="matrix(-0.38109846,0,0,0.38109846,-750.62137,-168.85942)"
         id="g547">
        <path
           d="m -802,-116.30326 6,3.30326 -6,3.4641 6,3.4641 -6,5.32087 5,3.822727 -5,4.249066 5,3.750934 -5,4.865936 6,3.484917 -6,4.515083 5,3.639617 -5,4.124533 L -796.57735,-64 -802,-59.515083 -796.5359,-57 -802,-51.688667 l 5,4.224565 -5,4 5,4 -5,4 3,2"
           stroke-dasharray="8, 2, 1, 2"
           id="path525" />
        <path
           d="m -802,-114 2,1 -2,1"
           id="path527" />
        <path
           d="m -802,-106.46575 2,1 -2,1"
           id="path529" />
        <path
           d="m -802,-97.935239 2,1 -2,1"
           id="path531" />
        <path
           d="m -802,-89.902859 2,1 -2,1"
           id="path533" />
        <path
           d="m -802,-81.372348 2,1 -2,1"
           id="path535" />
        <path
           d="m -802,-73.277703 2,1 -2,1"
           id="path537" />
        <path
           d="m -802,-64.996258 2,1 -2,1"
           id="path539" />
        <path
           d="m -802,-56.714813 2,1 -2,1"
           id="path541" />
        <path
           d="m -802,-48.433368 2,1 -2,1"
           id="path543" />
        <path
           d="m -802,-40.151923 2,1 -2,1"
           id="path545" />
      </g>
    </g>
    <g
       fill="#f39192"
       stroke-dasharray="154.108, 38.527, 19.2635, 38.527"
       stroke-linecap="round"
       stroke-width="7.09417"
       transform="matrix(1.7470306,0,0,1.7470306,-3687.8445,-1049.6322)"
       id="g581"
       style="clip-rule:evenodd;fill:#f39192;fill-opacity:1;fill-rule:evenodd;stroke-linejoin:round;stroke-miterlimit:1.41421">
      <path
         d="m 2388.9712,943.93248 q -1.9398,-1.16388 -4.1382,-1.42252 l -2.4571,-0.12932 0.1293,-14.09592 q 0.6466,-61.29782 0.2587,-64.01355 -0.388,-1.03456 -1.1639,-0.90524 -1.2932,0.12932 -2.9744,-0.25864 -1.6811,-0.38796 -2.845,-1.03456 -1.1639,-0.77592 -1.0346,-1.29321 1.0346,-3.233 14.6132,-3.233 9.3111,0 14.6132,1.68116 5.4315,1.55184 9.3111,5.81941 2.5864,2.71573 2.9743,4.00893 0.5173,1.16389 0.2587,5.30214 -0.2587,3.49164 -0.7759,5.04349 -0.5173,1.55184 -2.4571,3.62097 -7.1127,8.14718 -11.8975,11.5095 l -2.1984,1.55185 4.0089,5.17281 q 0.1293,0.12932 4.3969,5.04349 4.3969,4.91417 6.5953,6.3367 6.3367,4.39689 11.5095,5.04349 5.3021,0.51728 5.6901,0.90524 2.0691,1.2932 -1.1639,4.26757 -3.6209,3.10369 -7.8885,3.10369 -3.4917,0 -8.0179,-3.87961 -4.5262,-3.87961 -14.0959,-15.64776 -1.8105,-2.19844 -3.4916,-4.13825 -1.6812,-1.9398 -2.7158,-2.84504 -1.0345,-1.03457 -1.1638,-0.90525 -0.6466,0.64661 -0.6466,22.11378 0,21.33785 -1.0346,23.27765 -0.5173,1.03456 -2.1985,0 z m 9.8284,-54.57317 q 3.233,-1.9398 4.6555,-3.10369 1.4225,-1.16388 3.7503,-4.13825 2.5864,-3.10368 2.8451,-5.69009 0.2586,-2.5864 -0.776,-4.78485 -0.9052,-2.84505 -2.4571,-4.39689 -1.5518,-1.55184 -6.078,-3.23301 -5.9487,-2.19844 -7.2419,0.51728 -1.2932,2.71573 -0.9053,16.03572 0.2587,9.82834 0.7759,10.60427 0.6466,0.90524 4.009,-1.03457 1.0345,-0.51728 1.4225,-0.77592 z"
         id="path551"
         style="fill:#f39192;fill-opacity:1" />
      <path
         d="m 2446.7774,927.89676 q -1.1639,-1.03456 -4.9141,-3.233 -2.8451,-1.68117 -4.009,-3.75029 -1.1639,-2.06913 -2.9743,-8.14718 -1.1639,-4.13825 -1.4226,-7.37126 -0.2586,-3.23301 -0.1293,-12.02679 0.2587,-13.06135 1.8105,-17.97552 1.5518,-4.91417 5.8194,-6.59534 3.8796,-1.55184 6.7247,0.77592 2.1984,1.81049 0.1293,3.75029 -1.2932,1.03457 -1.5519,4.52621 -0.2586,2.97437 -1.2932,7.37126 -1.1638,4.26757 -0.2586,16.16504 0.6466,8.66446 1.4225,11.63883 0.9053,2.84505 3.621,6.20737 1.4225,1.81049 5.5608,2.06913 4.2675,0.25864 6.9833,-1.16388 5.6901,-3.10369 8.0178,-14.74252 2.4571,-11.63883 0.7759,-27.54523 l -1.0345,-9.69902 2.0691,-1.03456 q 2.9744,-1.42252 3.621,-0.6466 0.7759,0.77592 0.9052,5.56077 0,22.11377 -1.5518,29.87299 -3.8796,19.13941 -10.475,23.27766 -5.0435,3.10368 -10.2163,3.87961 -5.0435,0.77592 -7.6299,-1.16389 z"
         id="path553"
         style="fill:#f39192;fill-opacity:1" />
      <path
         d="m 2503.2904,941.4754 q -0.5173,0 -2.3278,-0.38796 -1.6811,-0.38797 -2.457,-0.51729 -2.4571,-0.38796 -6.854,-4.00893 -4.3969,-3.62096 -5.4315,-6.07805 -0.6466,-1.42252 -0.5173,-2.06912 0.1294,-0.77593 1.0346,-1.68117 1.5518,-1.42252 3.7503,-0.6466 2.1984,0.6466 3.7503,3.23301 1.9398,2.71572 4.6555,5.17281 3.1037,2.58641 6.9833,2.58641 4.1383,0 4.5262,-0.77593 0.388,-0.90524 2.0691,-0.90524 1.5519,0 1.5519,-0.77592 0,-0.90524 1.0346,-0.90524 0.9052,0 2.3277,-1.55185 1.4225,-1.68116 1.4225,-2.71572 0,-1.16389 1.8105,-3.87961 l 0.6466,-3.36233 -1.2932,-5.43145 q -0.6466,-1.81049 -1.1639,-2.71573 -0.5172,-0.90524 -1.0345,-1.42252 -0.388,-0.51728 -2.4571,-2.19845 -1.9398,-1.81048 -3.7503,-3.49165 -8.0179,-7.50057 -10.9922,-9.31106 -2.7158,-1.68116 -5.3022,-4.78485 -0.5172,-0.51728 -1.9398,-2.71573 -1.4225,-2.19844 -2.0691,-2.84504 -2.7157,-2.84505 -1.9398,-11.76815 0.6466,-6.72466 4.3969,-10.60427 3.8796,-3.87961 12.2854,-5.30213 10.3457,-1.68116 15.1305,1.2932 1.2932,0.90525 1.4225,2.97437 0.2587,2.06913 -0.7759,2.97437 -0.9052,0.77592 -1.6812,0.77592 -0.7759,-0.12932 -3.233,-1.03456 -4.1382,-1.68117 -9.699,-1.03456 -8.2765,1.03456 -8.2765,7.62989 0,3.87961 1.4225,6.59534 1.4226,2.71573 5.1728,5.56077 4.009,2.97437 6.5954,5.30214 2.1984,1.9398 3.7503,2.71572 3.3623,1.81049 8.1472,8.53514 4.9141,6.72466 4.9141,9.5697 0,1.68117 1.0346,3.23301 0.9052,1.55185 -1.2932,8.66446 -2.1985,6.72466 -5.9488,10.73359 -4.0089,4.13825 -9.311,6.07805 -5.3021,2.06913 -10.087,1.29321 z"
         id="path555"
         style="fill:#f39192;fill-opacity:1" />
      <path
         d="m 2558.1222,941.34608 q -2.4571,-0.51729 -2.9744,-1.16389 -0.5172,-0.6466 -0.5172,-2.71572 0,-8.53514 -0.2587,-25.08814 -0.2586,-16.553 -0.6466,-29.48503 -0.2586,-13.06135 -0.3879,-13.32 -0.388,-0.6466 -4.6556,-0.25864 -2.3277,0.25864 -10.087,0.90525 l -5.6901,0.6466 0.6467,-2.84505 q 0.6466,-2.84505 2.1984,-4.26757 1.6812,-1.42252 3.621,-0.6466 1.9398,0.77592 5.8194,-0.38796 4.0089,-1.16388 5.6901,-0.90524 2.5864,0.25864 5.0435,-0.38796 7.7592,-1.93981 17.7168,-2.58641 10.087,-0.6466 12.1562,0.6466 1.0345,0.51728 1.0345,2.06913 0,1.55184 -2.1984,1.55184 -1.5519,0 -3.621,1.03456 -1.8105,0.90524 -9.699,1.81049 l -8.0179,0.90524 v 7.50058 q 0,8.14718 1.6812,46.68463 0.3879,9.05242 0.2586,12.15611 -0.1293,2.97436 -1.0345,5.43145 -1.2932,3.62097 -1.9398,3.62097 -0.776,0 -4.1383,-0.90524 z"
         id="path557"
         style="fill:#f39192;fill-opacity:1" />
      <path
         d="m 2622.5237,925.18104 q -0.6466,-1.29321 -1.6811,-5.43146 -1.1639,-4.78485 -2.8451,-9.95766 l -1.6811,-5.30213 -10.7336,0.51728 q -7.3713,0.38796 -9.4404,0.77592 -1.9398,0.25864 -2.9744,1.42252 -1.6811,1.29321 -1.6811,3.23301 0,1.68117 -0.6466,1.93981 -0.9053,0.38796 -2.9744,4.91417 -3.621,6.9833 -6.3367,8.14718 -1.1639,0.51728 -1.1639,-1.16388 0,-0.77593 0.2587,-2.06913 0.3879,-1.42252 1.4225,-4.00893 6.3367,-13.44931 5.1728,-14.61319 -1.2932,-1.29321 -1.2932,-2.58641 -0.1293,-1.2932 0.3879,-1.55184 0.6466,-0.38796 2.7158,-0.38796 3.1037,0 3.233,-1.55185 0.2586,-1.81048 3.4916,-7.75922 3.3624,-6.20737 3.3624,-6.85397 0,-1.03457 0.9052,-1.93981 1.2932,-1.2932 2.4571,-5.43145 1.4225,-4.52621 2.9744,-6.72466 1.5518,-2.19844 3.233,-2.06912 2.1984,0.12932 4.6555,2.45708 2.5864,2.19845 2.7157,4.13825 0.388,3.36233 2.3278,7.50058 1.6811,3.62097 3.8796,10.08699 3.4916,8.9231 5.9487,13.31999 1.0346,1.9398 2.5864,7.75922 1.6812,5.81941 1.5519,7.75921 0,1.68117 -0.6466,2.45709 -0.5173,0.77592 -2.4571,1.42252 -4.2676,1.68117 -5.3021,1.93981 -1.0346,0.12932 -1.4226,-0.38796 z m -9.699,-26.76931 q 0.5173,-1.16388 -2.0691,-9.18174 -2.5864,-8.01786 -3.4917,-7.88854 -0.6466,0 -1.0345,1.93981 -0.5173,2.19844 -1.6812,2.71572 -1.1639,0.51729 -1.1639,2.06913 0,2.32776 -1.2932,3.75029 -1.5518,1.68116 -1.5518,2.84504 0,0.90525 -1.2932,2.19845 -0.9053,1.03456 -0.9053,1.42252 0.1294,0.25864 0.9053,0.77593 1.1639,0.77592 7.1126,0.51728 5.9487,-0.25864 6.466,-1.16389 z"
         id="path559"
         style="fill:#f39192;fill-opacity:1" />
      <path
         d="m 2665.846,940.57015 -6.7246,-1.03456 -6.0781,-6.07805 q -6.2073,-6.20738 -8.5351,-10.99223 -1.6812,-3.49165 -2.0691,-5.81941 -0.388,-2.45709 -0.388,-10.73359 0,-8.79378 0.7759,-13.70795 0.7759,-5.04349 3.1037,-9.82834 1.5519,-3.23301 5.4315,-8.79379 4.0089,-5.56077 5.6901,-6.72465 2.5864,-2.06913 3.1036,-2.58641 0.1294,-0.12932 6.3367,-2.97436 3.3624,-1.42253 5.0435,-1.68117 1.8105,-0.38796 4.9142,0 9.5697,0.90524 9.5697,5.81941 0,2.19845 -1.6812,3.36233 -1.6811,1.03457 -3.8796,1.03457 -1.4225,0 -3.4916,-2.06913 -1.1639,-1.16388 -3.3623,-2.32777 -2.1985,-1.2932 -3.4917,-1.16388 -3.233,0.38796 -6.9833,3.36233 -3.621,2.97437 -5.8194,8.01786 -0.7759,1.55184 -1.5518,4.91417 -0.6466,3.36233 -0.9053,3.62097 -0.3879,0.51728 -0.9052,13.06135 -0.6466,11.50951 1.4225,19.13941 2.1984,7.50057 7.8885,13.70795 2.9744,3.23301 4.6556,4.26757 1.6811,0.90524 4.5262,0.90524 l 7.6299,-0.90524 7.8885,-6.20738 q 1.6812,0 2.0691,1.93981 0.388,1.68116 -0.7759,1.68116 -1.0345,0 -4.6555,4.13825 -3.621,3.87961 -7.1126,4.91417 -3.1037,0.77593 -4.009,0.77593 -0.9052,0 -7.6299,-1.03457 z"
         id="path561"
         style="fill:#f39192;fill-opacity:1" />
      <path
         d="m 2699.0813,925.69832 q -1.2932,-1.55184 -1.5518,-3.62097 -0.1293,-2.19845 0.2586,-11.12155 l 0.6466,-12.54407 -2.1984,-0.77592 q -2.1985,-1.03456 -2.1985,-3.23301 0,-1.2932 1.1639,-1.2932 1.6812,0 1.9398,0.12932 0.776,0.12932 1.1639,-2.5864 0.388,-2.84505 0.5173,-7.88854 0.1293,-5.17282 1.6812,-9.31107 1.5518,-4.26757 3.3623,-4.26757 1.6812,0 1.9398,-0.6466 1.0346,-1.2932 12.932,0.12932 0.6466,0 4.009,0.12932 3.3623,0.12932 5.1728,0.25864 5.3021,0.51728 7.2419,1.93981 1.9398,1.2932 0.9052,3.62097 -0.7759,1.55184 -1.5518,1.9398 -0.7759,0.25864 -4.1382,-0.12932 -2.9744,-0.25864 -5.9488,-1.2932 -3.4916,-1.16388 -8.1472,-1.16388 l -6.3367,-0.51729 0.2587,5.0435 q 0,0.90524 -0.5173,4.26757 -0.388,3.233 -0.5173,4.78485 l -0.3879,5.56077 4.7848,-0.6466 q 12.932,-1.42252 13.32,0.90524 0.1293,1.42253 -1.2932,1.42253 -1.6812,0 -2.3278,0.6466 -0.7759,0.77592 -5.9487,1.68116 -5.0435,0.90524 -6.5953,0.51728 -1.2932,-0.38796 -1.6812,1.42253 -0.5173,1.9398 -1.4225,14.09591 -0.2587,2.84505 -0.1293,4.91417 0.1293,1.93981 0.3879,2.97437 0.388,1.03456 0.7759,1.03456 3.3624,0 10.9923,-2.32777 7.7592,-2.32776 10.4749,-3.62096 2.4571,-1.16389 3.233,-1.29321 0.9053,-0.12932 2.7157,0.51728 4.5263,1.81049 -0.5172,4.78486 -0.9053,0.51728 -1.9398,1.03456 -10.2163,5.17281 -20.174,5.30213 -5.4315,0.12932 -9.699,0.90524 -1.9398,0.38796 -2.7158,0.12932 -0.7759,-0.38796 -1.9398,-1.81048 z"
         id="path563"
         style="fill:#f39192;fill-opacity:1" />
      <path
         d="m 2784.3034,925.18104 q -0.6466,-1.29321 -1.6811,-5.43146 -1.1639,-4.78485 -2.8451,-9.95766 l -1.6811,-5.30213 -10.7336,0.51728 q -7.3713,0.38796 -9.4404,0.77592 -1.9398,0.25864 -2.9744,1.42252 -1.6811,1.29321 -1.6811,3.23301 0,1.68117 -0.6467,1.93981 -0.9052,0.38796 -2.9743,4.91417 -3.621,6.9833 -6.3367,8.14718 -1.1639,0.51728 -1.1639,-1.16388 0,-0.77593 0.2586,-2.06913 0.388,-1.42252 1.4226,-4.00893 6.3367,-13.44931 5.1728,-14.61319 -1.2932,-1.29321 -1.2932,-2.58641 -0.1293,-1.2932 0.3879,-1.55184 0.6466,-0.38796 2.7158,-0.38796 3.1037,0 3.233,-1.55185 0.2586,-1.81048 3.4916,-7.75922 3.3623,-6.20737 3.3623,-6.85397 0,-1.03457 0.9053,-1.93981 1.2932,-1.2932 2.4571,-5.43145 1.4225,-4.52621 2.9743,-6.72466 1.5519,-2.19844 3.2331,-2.06912 2.1984,0.12932 4.6555,2.45708 2.5864,2.19845 2.7157,4.13825 0.388,3.36233 2.3278,7.50058 1.6811,3.62097 3.8796,10.08699 3.4916,8.9231 5.9487,13.31999 1.0346,1.9398 2.5864,7.75922 1.6812,5.81941 1.5519,7.75921 0,1.68117 -0.6466,2.45709 -0.5173,0.77592 -2.4571,1.42252 -4.2676,1.68117 -5.3022,1.93981 -1.0345,0.12932 -1.4225,-0.38796 z m -9.699,-26.76931 q 0.5173,-1.16388 -2.0691,-9.18174 -2.5864,-8.01786 -3.4917,-7.88854 -0.6466,0 -1.0345,1.93981 -0.5173,2.19844 -1.6812,2.71572 -1.1639,0.51729 -1.1639,2.06913 0,2.32776 -1.2932,3.75029 -1.5518,1.68116 -1.5518,2.84504 0,0.90525 -1.2932,2.19845 -0.9053,1.03456 -0.9053,1.42252 0.1293,0.25864 0.9053,0.77593 1.1639,0.77592 7.1126,0.51728 5.9487,-0.25864 6.466,-1.16389 z"
         id="path565"
         style="fill:#f39192;fill-opacity:1" />
      <path
         d="m 2821.1597,871.25447 2.0691,3.36233 q 3.4917,4.52621 13.8373,25.99338 4.7849,9.82834 5.5608,9.95766 0.2586,0 0.2586,-0.77592 0,-1.9398 0.5173,-5.69009 0.5173,-3.75029 0.5173,-5.56078 0,-3.36232 0.388,-9.69902 0.5172,-6.33669 0.5172,-9.5697 0,-15.00116 4.009,-15.00116 1.0345,0 1.5518,0.6466 0.6466,0.64661 0.7759,1.81049 0.1293,1.03456 0.1293,2.19844 0,1.03457 -0.1293,2.32777 0,1.2932 0,1.81048 0.2587,6.59534 -1.4225,18.75145 -1.6812,12.15611 -1.9398,16.42368 v 14.22523 q 0,1.68117 -1.2932,5.04349 -1.1639,3.23301 -2.5864,3.23301 -1.2932,0 -2.0691,-1.16388 -0.776,-1.29321 -1.4226,-3.36233 -0.6466,-2.19845 -0.9052,-2.71573 -3.4916,-7.11261 -15.0012,-27.15726 -0.3879,-0.6466 -2.5864,-6.20738 -2.1984,-5.69009 -2.5864,-6.20737 -2.3277,-3.23301 -2.5864,-0.51728 -0.1293,0.77592 -0.1293,3.23301 v 3.62096 q -0.388,1.29321 -0.2586,1.55185 0.2586,1.03456 0.2586,6.85397 0,3.62097 0.2586,7.11262 0.2587,3.49165 0,6.20738 -0.1293,1.16388 -0.5172,3.49164 -0.2587,2.19845 -0.2587,2.32777 -0.5173,5.04349 -0.7759,7.75922 -0.5173,6.33669 -1.2932,9.05242 -0.9052,3.36233 -0.5173,5.56077 0.5173,2.84505 -1.4225,4.52621 -1.0346,0.77593 -1.8105,0 -0.6466,-0.6466 -3.233,-2.71572 -2.0691,-1.81049 -1.6812,-3.62097 0.776,-3.10369 0.9053,-4.65553 0.3879,-4.52621 1.0345,-7.6299 1.0346,-5.17281 1.2932,-10.34562 0.1294,-1.81049 0.5173,-6.3367 0.388,-4.52621 0.5173,-5.56077 0.5173,-5.56078 0.388,-15.38912 0,-9.95766 -0.5173,-13.96659 -0.388,-3.75029 -1.9398,-5.30214 -1.1639,-1.16388 -2.5864,-4.00893 -1.4225,-2.84504 -1.8105,-4.65553 -0.1293,-1.03456 0.6466,-1.55184 0.9052,-0.6466 3.8796,-1.42252 l 4.7849,-1.16389 1.9398,2.32777 q 2.1984,2.45708 2.1984,3.75029 0,1.81048 1.0346,2.5864 1.2932,1.03457 1.2932,1.93981 0,1.2932 2.1984,4.26757 z"
         id="path567"
         style="fill:#f39192;fill-opacity:1" />
      <path
         d="m 2878.578,941.4754 q -0.5173,0 -2.3278,-0.38796 -1.6812,-0.38797 -2.4571,-0.51729 -2.4571,-0.38796 -6.854,-4.00893 -4.3969,-3.62096 -5.4314,-6.07805 -0.6466,-1.42252 -0.5173,-2.06912 0.1293,-0.77593 1.0346,-1.68117 1.5518,-1.42252 3.7502,-0.6466 2.1985,0.6466 3.7503,3.23301 1.9398,2.71572 4.6556,5.17281 3.1037,2.58641 6.9833,2.58641 4.1382,0 4.5262,-0.77593 0.3879,-0.90524 2.0691,-0.90524 1.5518,0 1.5518,-0.77592 0,-0.90524 1.0346,-0.90524 0.9052,0 2.3278,-1.55185 1.4225,-1.68116 1.4225,-2.71572 0,-1.16389 1.8105,-3.87961 l 0.6466,-3.36233 -1.2932,-5.43145 q -0.6466,-1.81049 -1.1639,-2.71573 -0.5173,-0.90524 -1.0346,-1.42252 -0.3879,-0.51728 -2.4571,-2.19845 -1.9398,-1.81048 -3.7502,-3.49165 -8.0179,-7.50057 -10.9923,-9.31106 -2.7157,-1.68116 -5.3021,-4.78485 -0.5173,-0.51728 -1.9398,-2.71573 -1.4225,-2.19844 -2.0691,-2.84504 -2.7158,-2.84505 -1.9398,-11.76815 0.6466,-6.72466 4.3969,-10.60427 3.8796,-3.87961 12.2854,-5.30213 10.3456,-1.68116 15.1305,1.2932 1.2932,0.90525 1.4225,2.97437 0.2586,2.06913 -0.7759,2.97437 -0.9053,0.77592 -1.6812,0.77592 -0.7759,-0.12932 -3.233,-1.03456 -4.1383,-1.68117 -9.699,-1.03456 -8.2765,1.03456 -8.2765,7.62989 0,3.87961 1.4225,6.59534 1.4225,2.71573 5.1728,5.56077 4.0089,2.97437 6.5953,5.30214 2.1985,1.9398 3.7503,2.71572 3.3624,1.81049 8.1472,8.53514 4.9142,6.72466 4.9142,9.5697 0,1.68117 1.0345,3.23301 0.9053,1.55185 -1.2932,8.66446 -2.1984,6.72466 -5.9487,10.73359 -4.0089,4.13825 -9.3111,6.07805 -5.3021,2.06913 -10.0869,1.29321 z"
         id="path569"
         style="fill:#f39192;fill-opacity:1" />
      <path
         d="m 2951.1267,942.63928 q -0.6466,-2.06913 -0.9053,-35.17512 -0.2586,-29.22639 -1.0345,-40.0893 -0.5173,-4.13825 -0.2587,-7.6299 0.388,-3.49165 1.2932,-4.39689 0.388,-0.38796 4.0089,-0.6466 l 3.621,-0.12932 0.388,6.33669 q 1.5518,15.51844 1.5518,27.80387 0,6.20738 1.0346,6.72466 1.1639,0.51728 4.5262,-4.13825 5.6901,-7.37126 6.466,-8.14718 3.1037,-3.36233 5.5608,-7.11262 2.5864,-4.00893 4.7848,-6.59534 3.3624,-3.8796 4.2676,-5.30213 0.9052,-1.42252 1.2932,-1.55184 0.5173,-0.12932 1.4225,0.90524 1.0346,1.03456 1.0346,1.81048 0.1293,0.77593 -0.6466,3.49165 -1.5519,5.17282 -15.1305,18.62213 -7.8885,7.88854 -7.8885,10.99222 0,1.81049 2.5864,4.13825 2.845,2.58641 3.8796,4.65553 1.1639,2.19845 3.7503,4.13825 2.845,2.06913 4.3969,3.62097 1.9398,1.93981 3.8796,1.93981 2.0691,0 2.5864,0.90524 0.3879,0.90524 5.9487,0.6466 3.7503,-0.12932 4.6556,0.12932 1.0345,0.25864 1.1638,1.2932 0.388,2.45709 -1.9398,4.78486 -2.1984,2.32776 -6.3367,2.32776 -4.0089,0 -4.3969,-0.77592 -0.2586,-0.38796 -1.4225,-1.2932 -1.1639,-0.90525 -2.0691,-1.03457 -1.8105,-0.38796 -7.1126,-5.43145 -5.3022,-5.17281 -10.087,-11.25087 -4.2676,-5.17281 -5.1728,-5.17281 -0.9053,0 -1.0346,9.05242 0,9.05243 0.7759,17.32893 1.0346,11.25086 -2.457,14.09591 -1.9398,1.42252 -4.1383,1.42252 -2.1984,0.12932 -2.845,-1.2932 z"
         id="path571"
         style="fill:#f39192;fill-opacity:1" />
      <path
         d="m 3005.8291,925.69832 q -1.2932,-1.55184 -1.5518,-3.62097 -0.1293,-2.19845 0.2586,-11.12155 l 0.6466,-12.54407 -2.1984,-0.77592 q -2.1985,-1.03456 -2.1985,-3.23301 0,-1.2932 1.1639,-1.2932 1.6812,0 1.9398,0.12932 0.776,0.12932 1.1639,-2.5864 0.388,-2.84505 0.5173,-7.88854 0.1293,-5.17282 1.6812,-9.31107 1.5518,-4.26757 3.3623,-4.26757 1.6812,0 1.9398,-0.6466 1.0346,-1.2932 12.932,0.12932 0.6466,0 4.009,0.12932 3.3623,0.12932 5.1728,0.25864 5.3021,0.51728 7.2419,1.93981 1.9398,1.2932 0.9052,3.62097 -0.7759,1.55184 -1.5518,1.9398 -0.7759,0.25864 -4.1382,-0.12932 -2.9744,-0.25864 -5.9488,-1.2932 -3.4916,-1.16388 -8.1472,-1.16388 l -6.3367,-0.51729 0.2587,5.0435 q 0,0.90524 -0.5173,4.26757 -0.388,3.233 -0.5173,4.78485 l -0.3879,5.56077 4.7848,-0.6466 q 12.932,-1.42252 13.32,0.90524 0.1293,1.42253 -1.2932,1.42253 -1.6812,0 -2.3278,0.6466 -0.7759,0.77592 -5.9487,1.68116 -5.0435,0.90524 -6.5953,0.51728 -1.2932,-0.38796 -1.6812,1.42253 -0.5173,1.9398 -1.4225,14.09591 -0.2587,2.84505 -0.1293,4.91417 0.1293,1.93981 0.3879,2.97437 0.388,1.03456 0.7759,1.03456 3.3624,0 10.9923,-2.32777 7.7592,-2.32776 10.4749,-3.62096 2.4571,-1.16389 3.233,-1.29321 0.9053,-0.12932 2.7157,0.51728 4.5263,1.81049 -0.5172,4.78486 -0.9053,0.51728 -1.9398,1.03456 -10.2163,5.17281 -20.174,5.30213 -5.4315,0.12932 -9.699,0.90524 -1.9398,0.38796 -2.7158,0.12932 -0.7759,-0.38796 -1.9398,-1.81048 z"
         id="path573"
         style="fill:#f39192;fill-opacity:1" />
      <path
         d="m 3070.1013,871.25447 2.0692,3.36233 q 3.4916,4.52621 13.8372,25.99338 4.7849,9.82834 5.5608,9.95766 0.2586,0 0.2586,-0.77592 0,-1.9398 0.5173,-5.69009 0.5173,-3.75029 0.5173,-5.56078 0,-3.36232 0.388,-9.69902 0.5173,-6.33669 0.5173,-9.5697 0,-15.00116 4.0089,-15.00116 1.0345,0 1.5518,0.6466 0.6466,0.64661 0.7759,1.81049 0.1294,1.03456 0.1294,2.19844 0,1.03457 -0.1294,2.32777 0,1.2932 0,1.81048 0.2587,6.59534 -1.4225,18.75145 -1.6811,12.15611 -1.9398,16.42368 v 14.22523 q 0,1.68117 -1.2932,5.04349 -1.1639,3.23301 -2.5864,3.23301 -1.2932,0 -2.0691,-1.16388 -0.7759,-1.29321 -1.4225,-3.36233 -0.6466,-2.19845 -0.9053,-2.71573 -3.4916,-7.11261 -15.0011,-27.15726 -0.388,-0.6466 -2.5864,-6.20738 -2.1985,-5.69009 -2.5864,-6.20737 -2.3278,-3.23301 -2.5865,-0.51728 -0.1293,0.77592 -0.1293,3.23301 v 3.62096 q -0.3879,1.29321 -0.2586,1.55185 0.2586,1.03456 0.2586,6.85397 0,3.62097 0.2587,7.11262 0.2586,3.49165 0,6.20738 -0.1294,1.16388 -0.5173,3.49164 -0.2587,2.19845 -0.2587,2.32777 -0.5172,5.04349 -0.7759,7.75922 -0.5173,6.33669 -1.2932,9.05242 -0.9052,3.36233 -0.5173,5.56077 0.5173,2.84505 -1.4225,4.52621 -1.0345,0.77593 -1.8105,0 -0.6466,-0.6466 -3.233,-2.71572 -2.0691,-1.81049 -1.6811,-3.62097 0.7759,-3.10369 0.9052,-4.65553 0.388,-4.52621 1.0346,-7.6299 1.0345,-5.17281 1.2932,-10.34562 0.1293,-1.81049 0.5172,-6.3367 0.388,-4.52621 0.5173,-5.56077 0.5173,-5.56078 0.388,-15.38912 0,-9.95766 -0.5173,-13.96659 -0.388,-3.75029 -1.9398,-5.30214 -1.1639,-1.16388 -2.5864,-4.00893 -1.4225,-2.84504 -1.8105,-4.65553 -0.1293,-1.03456 0.6466,-1.55184 0.9053,-0.6466 3.8796,-1.42252 l 4.7849,-1.16389 1.9398,2.32777 q 2.1984,2.45708 2.1984,3.75029 0,1.81048 1.0346,2.5864 1.2932,1.03457 1.2932,1.93981 0,1.2932 2.1984,4.26757 z"
         id="path575"
         style="fill:#f39192;fill-opacity:1" />
      <path
         d="m 3117.1739,933.1989 q -1.1639,-0.51728 -1.0345,-1.68117 0.1293,-1.16388 1.4225,-2.06912 6.7246,-4.91417 11.6388,-15.13048 4.2676,-8.79378 2.8451,-10.2163 -1.4226,-1.42253 -1.4226,-2.19845 0,-0.90524 -2.7157,-4.26757 -2.4571,-2.97437 -5.9487,-9.31106 -1.8105,-2.84505 -5.8194,-7.6299 -3.621,-4.39689 -4.5263,-6.46601 -1.1638,-2.58641 -1.6811,-3.23301 -0.9053,-1.2932 -0.6466,-3.62097 0.1293,-1.93981 1.1639,-2.32777 1.1638,-0.38796 5.0435,0.12932 0.6466,0.12932 1.2932,0.25864 0.7759,0 1.2932,0 0.5172,0 0.9052,0.12933 0.5173,0 0.7759,0.12932 0.388,0 0.6466,0.12932 0.388,0 0.5173,0.12932 0.1293,0 0.2586,0.12932 0.1294,0.12932 0.1294,0.25864 0.1293,0.12932 0.1293,0.38796 0,1.16388 1.2932,3.23301 0.1293,0.12932 5.6901,10.99222 1.1639,2.19845 2.1984,3.49165 1.1639,1.2932 1.6812,2.19845 2.845,5.17281 3.233,6.07805 1.6812,4.26757 1.9398,4.26757 1.0346,0 2.1985,-3.10369 1.2932,-3.233 1.6811,-6.07805 0.2587,-2.58641 0.6466,-2.97437 1.0346,-1.2932 3.1037,-10.34562 2.0691,-9.05243 2.0691,-11.50951 0,-0.77592 2.0692,-0.90524 2.0691,-0.12932 3.3623,0.25864 4.7848,1.16388 2.845,3.10368 -0.9052,0.90525 -0.9052,2.45709 0,1.93981 -3.621,9.5697 -0.2586,0.64661 -0.5173,1.03457 -0.2586,0.25864 -0.3879,0.38796 -0.1293,0.12932 -0.2587,0.51728 -0.1293,0.25864 -0.5172,1.03456 -0.2587,0.6466 -0.6466,1.93981 -3.1037,9.44038 -3.621,10.47494 -0.2587,0.6466 -0.5173,2.32777 -0.2586,1.55184 -0.6466,1.81048 -0.6466,0.51728 -2.3278,4.26757 -1.5518,3.62097 -1.8104,3.75029 -0.5173,0.38796 -0.9053,1.2932 -0.388,0.90524 -1.8105,4.52621 -1.2932,3.49165 -3.1037,7.75922 -1.2932,2.97437 -2.457,5.6901 -1.0346,2.71572 -1.4226,3.62096 -0.3879,0.77593 -0.9052,1.81049 -0.5173,1.03456 -0.9053,1.55184 -0.2586,0.38796 -1.1638,1.42253 -2.9744,3.36232 -9.8284,0.51728 z"
         id="path577"
         style="fill:#f39192;fill-opacity:1" />
      <path
         d="m 3197.4818,925.18104 q -0.6466,-1.29321 -1.6811,-5.43146 -1.1639,-4.78485 -2.8451,-9.95766 l -1.6811,-5.30213 -10.7336,0.51728 q -7.3713,0.38796 -9.4404,0.77592 -1.9398,0.25864 -2.9744,1.42252 -1.6811,1.29321 -1.6811,3.23301 0,1.68117 -0.6466,1.93981 -0.9053,0.38796 -2.9744,4.91417 -3.621,6.9833 -6.3367,8.14718 -1.1639,0.51728 -1.1639,-1.16388 0,-0.77593 0.2587,-2.06913 0.3879,-1.42252 1.4225,-4.00893 6.3367,-13.44931 5.1728,-14.61319 -1.2932,-1.29321 -1.2932,-2.58641 -0.1293,-1.2932 0.3879,-1.55184 0.6466,-0.38796 2.7158,-0.38796 3.1037,0 3.233,-1.55185 0.2586,-1.81048 3.4916,-7.75922 3.3624,-6.20737 3.3624,-6.85397 0,-1.03457 0.9052,-1.93981 1.2932,-1.2932 2.4571,-5.43145 1.4225,-4.52621 2.9744,-6.72466 1.5518,-2.19844 3.233,-2.06912 2.1984,0.12932 4.6555,2.45708 2.5864,2.19845 2.7157,4.13825 0.388,3.36233 2.3278,7.50058 1.6811,3.62097 3.8796,10.08699 3.4916,8.9231 5.9487,13.31999 1.0346,1.9398 2.5864,7.75922 1.6812,5.81941 1.5519,7.75921 0,1.68117 -0.6466,2.45709 -0.5173,0.77592 -2.4571,1.42252 -4.2676,1.68117 -5.3021,1.93981 -1.0346,0.12932 -1.4226,-0.38796 z m -9.699,-26.76931 q 0.5173,-1.16388 -2.0691,-9.18174 -2.5864,-8.01786 -3.4917,-7.88854 -0.6466,0 -1.0345,1.93981 -0.5173,2.19844 -1.6812,2.71572 -1.1639,0.51729 -1.1639,2.06913 0,2.32776 -1.2932,3.75029 -1.5518,1.68116 -1.5518,2.84504 0,0.90525 -1.2932,2.19845 -0.9053,1.03456 -0.9053,1.42252 0.1294,0.25864 0.9053,0.77593 1.1639,0.77592 7.1126,0.51728 5.9487,-0.25864 6.466,-1.16389 z"
         id="path579"
         style="fill:#f39192;fill-opacity:1" />
    </g>
    <text
       xml:space="preserve"
       style="font-size:57.5697px;font-family:Poppins;-inkscape-font-specification:Poppins;text-align:center;text-anchor:middle;fill:#f39192;fill-opacity:1;stroke-width:10.7203;stroke-linecap:round"
       x="1024.0001"
       y="752.00311"
       id="text761"><tspan
         sodipodi:role="line"
         id="tspan759"
         x="1024.0001"
         y="752.00311"
         style="fill:#f39192;fill-opacity:1;stroke-width:10.7203">Rust Programming Language Community in Kenya</tspan></text>
  </g>
</svg>
